<svg xmlns="http://www.w3.org/2000/svg" viewBox="0 0 374.66 336.43"><defs><style>.cls-1{fill:#0b798e;}</style></defs><g id="Capa_2" data-name="Capa 2"><g id="Capa_1-2" data-name="Capa 1"><path class="cls-1" d="M14.9,220.21c-2-1.35-3.77-2.56-5.55-3.7-3.71-2.37-6.9-5.23-8.65-9.38-1.92-4.53.24-7.62,5-6.43,4.11,1,8,3.17,11.9,4.85.9.38,1.73.91,3.3,1.75-.56-1.85-.83-3.08-1.3-4.23-2.86-6.9-5.93-13.72-8.57-20.7a29.26,29.26,0,0,1-2-9.64c-.07-4.86,3.6-6.94,7.8-4.5A18.44,18.44,0,0,1,23,173.85c3,4.72,5.5,9.81,8.12,14.8a45.49,45.49,0,0,1,1.78,4.62c2.73-4.06,4.67-8.32,9.81-9,.65-4.92,2.88-8.23,8-9.07.74-.13,1.53-1.18,1.92-2,5.17-10.52,14.84-12.15,23.15-3.87.59.58,1.12,1.22,1.82,2,2.92-.81,5.8-3.18,8.93-1.23,2.45,1.53,4.65,3.47,7.46,5.61,5.17-2.06,10.91-2.65,15.46,3.19,8-3.9,13.15,0,17.44,5.95,11.28-.75,22.38-1.44,33.47-2.29a4.65,4.65,0,0,0,3.22-1.76,79.91,79.91,0,0,0,6.16-11.35c2.37-5.75.56-8.07-5.69-7.82-3.15.13-6.29.62-9.44.85a14.91,14.91,0,0,1-9.08-2c-1.66-1-3.71-1.35-5.58-2s-3.82-1.61-3.94-4,1.79-3.36,3.69-4.12c2.47-1,5-1.8,7.42-2.89,5.73-2.58,9.75-6.64,11.47-12.93a24.16,24.16,0,0,1,8.93-13.45c.76-.56,1.8-1.39,1.84-2.14.11-2.06.5-3.38,2.88-3.84.68-.14,1-2.09,1.64-3.52,2.24-.57,4.14.89,6.19,1.87a39,39,0,0,0,6.81,2.92c13.45,3.43,21.09,14.34,19.68,28.17-.67,6.56-3.45,12.43-5.57,18.54-1.69,4.83-3,9.8-4.35,14.74a15.44,15.44,0,0,0,0,3.63c4.33.22,8.43.6,12.52.6,14.32,0,28.52,1.58,42.74,3,3.65.37,7.47,1.23,9.15-4l4.31,3.55c1.28-3.88,2.45-7.4,3.61-10.92,4.71,1,5.16,2.09,5.57,13.09,2.62.82,5.24,1.85,8,2.43s5.55.72,8.39,1.06a17.64,17.64,0,0,1,12.19-8.55,34.4,34.4,0,0,0-2.67-4.43c-1.18-1.38-2.72-2.43-4-3.75-3.9-4.08-4-5.1-1.08-10.35a33.33,33.33,0,0,1-3.59-3.14c-3-3.39-4.68-7.29-3.65-11.89,1.21-5.46,6.78-8.05,11.14-4.7,4.16,3.18,8.52,6.55,10.71,11.58a31.41,31.41,0,0,1,1.85,7.66c.28,1.83.49,3.32,3.25,2.89a36.05,36.05,0,0,0,1.2-4c.37-2.08,1.05-3.74,3.2-4.64,2.66-1.13,2.4-3.73,2.62-6a17.81,17.81,0,0,1,9-14.15c3-1.83,6.3-2.46,9.35-.22a8.06,8.06,0,0,1,3,9.34,55.9,55.9,0,0,1-4.1,9c-1.1,2.11-2.19,4-.86,6.49s-.17,4.83-1.1,7.11c-1.22,3-2.93,5.83-3.26,9.07,4.26-2.41,8.12-5.06,12.36-6.81a19.78,19.78,0,0,1,9.17-1.32c4.54.45,5.94,5,3,8.59a2.25,2.25,0,0,1-.71.7c-5.4,2.45-7.6,7.84-11.25,12.25.66,2.05,1.21,4.3,2.12,6.4a5.11,5.11,0,0,0,2.42,2.71c6.54,2.21,9.11,6.79,8.49,13,3.64,3.64,7.2,6.86,10.37,10.43,6.84,7.73,5.73,16.85.05,24.67a35,35,0,0,1-4.06,4.38c-3.75,3.65-3.93,4.72-1.42,9.51l1.61,3.09c5.05,9.62,3.67,18.68-2.75,27-5.23,6.81-12,11.84-19.55,16-16.45,9.07-34.19,14.48-52.43,18.47C255,334.61,218,336.92,180.87,336.35c-33-.5-65.71-3.33-97.94-10.64-13.46-3-26.73-6.78-38.73-14-6.17-3.69-12.05-7.65-15.78-14.12-4.78-8.27-5-16.34.55-24.33.38-.55.76-1.09,1.09-1.67,2.39-4.17,2-6.13-1.84-8.83-1.77-1.23-3.78-2.09-5.6-3.25-3.22-2-6.67-3.83-9.52-6.31-9.61-8.37-10-20.63-1.15-29.87C12.84,222.44,13.7,221.49,14.9,220.21Zm296.15-32.06c-3.5-4.6-7.23-5.34-10.94-2.79l8.29,2,2.76.65c.53,1.75,1.75,1.1,2.76.7a12.3,12.3,0,0,1,12.15,1.94c2.78,2.1,5.24,2.91,8.53,2.45a8.15,8.15,0,0,1,8.81,4.06,26.48,26.48,0,0,0,4,4.34l6,2.6c-1.59-2.21-3.63-3.1-6.12-2.52a26.57,26.57,0,0,0,0-3c-1-8.18-5.26-11.68-13.38-10.61-2.64.34-4.23-.57-6-2.36-3.87-3.86-9.26-3.64-13.29.06A30.77,30.77,0,0,1,311.05,188.15ZM36.56,201.26c.1,1,.2,2,.41,4.1,1.75-3.44,3-5.86,4.23-8.29l-.61-.34-4.19,4.7c1-1.69,1.89-3.45,3-5.05,2.39-3.46,6.77-5.21,8.15-9.61A3.15,3.15,0,0,1,50,185.33c4.43-.16,6.48-2.87,8.52-6.44,3.13-5.5,8.9-6.37,14.1-2.73a30.65,30.65,0,0,0,2.72,2.16c1.11.6,2.46,1.37,3.59,1.21,4.76-.66,8.83.85,12.72,3.32.55.35,1.22,1,1.73.88a19.79,19.79,0,0,1,15.63,3c5-.56,10.06-.48,15.14-2.05-1.18-3.06-3.69-3.67-5.84-4.8-3.45-1.81-6.31.47-9.45,1.54-4.18-7.34-10.09-5.84-16-3.41-8-8.9-8.79-7.27-15.61-4.52-8.14-11.75-21.6-9.78-24,2.79-2.47,1-5.27,1.36-6.74,2.95s-1.71,4.46-2.53,6.91c-4.49.5-7.34,3.35-8.76,7.57C34.26,196.35,33.55,199.22,36.56,201.26Zm38-4.15c-4.78,1.26-9.59,2.37-14.31,3.81-7.65,2.34-7.63,2.44-6.77,10.42,0,.26.37.49.82,1l4-1.38c3.76-1.3,7.47-2.75,11.27-3.89,16.75-5,34-7.38,51.25-9.74,10.18-1.39,20.45-2.12,30.68-3.12,2-.2,4.08-.14,5.27-2.17,1.38-2.35,2.69-4.74,4.35-7.66a406.3,406.3,0,0,0-80.87,10.91c0,1.87,1.26,3.58-1.08,5l-1.06-4.79-3.7,1.77Zm120.63,14.14c.41.22,1,.33,1.22.67,7.51,10.08,18.17,13.46,30.08,14,6,.27,11.52-1.36,15.57-6.27,1.45-1.77,1.79-3.53,0-5.28l-2-1.87c5.59-1.47,11.81-1.34,14.06-8.23l-3-2.73c3.57-1.19,7.67-1.41,9.17-6a10.11,10.11,0,0,0-2.77-1.21c-5.61-.38-10.56-2.75-15.6-4.91a85.43,85.43,0,0,0-9.32-3.47c-11.42-3.38-22.78-3.1-33.44,2.4C192.05,192,186.72,197.69,185,206c-.5,2.43-.59,4.94-1,7.39s-1.47,3.16-3.8,2.53a8.28,8.28,0,0,1-1.84-.93c-.31,4.84-.08,9.55-1,14-1.24,5.79-4.56,7.71-10.59,7.43-.67,0-1.35.07-2.94.16a42.42,42.42,0,0,0,18.69,8.62c16.52,3.4,33,2.68,49.49-.46,24-4.57,40.75-22.78,44.83-46.9a58.89,58.89,0,0,0,.41-7c-.71-.37-.88-.53-1-.51-1.23.21-2.46.45-3.84.7-.31-5.15,1.31-10.49-2.09-16.12-1.09,3.13-1.81,5.46-2.71,7.72s-2.21,4.66-4.74,6.11c-.19-1.65-.34-3-.53-4.68l-10.24,7.63,9.66,1.91a8.14,8.14,0,0,1,.36,2c-.15,1.1-.43,2.18-.67,3.37.54.14,1,.28,1.47.36,3.84.7,4.86,2.41,3.15,5.77a26,26,0,0,1-3,3.91c-.6.76-1.82,1.6-1.71,2.24.61,3.89-2.32,5.57-4.56,7.55-4.86,4.32-11,6.12-17.08,7.71a44.36,44.36,0,0,1-36.72-6c-3.49-2.27-6.69-4.94-7.7-9.32ZM99.82,298c3.8-5.5,4.31-5.43,7.14-.76a7,7,0,0,0,3.23,2.61,27,27,0,0,0,5.33,1.22c26.06,4.81,52.42,6.37,78.85,6.84a469.62,469.62,0,0,0,60.21-2.8c21-2.33,41.74-5.87,61.5-13.82,6.23-2.5,12.11-5.55,16.93-10.26,5.88-5.75,5.78-12.64-.09-18.35-1.43-1.39-3-2.6-4.36-4.08-2.78-3.13-2.74-6.46.39-9.2,3.33-2.92,7-5.37,11.71-5.39-.26-1.94-.5-3.67-.89-6.5l7.29,3.1c1.43-5.3,2.28-10.29,1.77-15.42a4.79,4.79,0,0,0-1.77-2.85c-3.6-2.89-7.32-5.61-12-7.3-.93,2.37-1.86,4.48-2.58,6.65a46.65,46.65,0,0,0-1.66,6.24c-1.2,6.4-2,7.52-8.34,8.64a28.61,28.61,0,0,1-7.89-.13c-2.47-.27-4.87-1-7.33-1.45-4.4-.75-8.84-1.35-13.24-2.11-4.79-.83-5.93-2.82-4.26-7.32.47-1.24,1-2.44,1.64-3.63,2-4,4.1-8,6.06-12,.76-1.57,1.25-3.28,2.05-5.41-6.51-1-12.39-2-18.25-3-2.26-.39-3.42.52-4.07,2.59-.91,2.84-1.77,5.71-2.92,8.45-7.51,17.77-20.76,28.83-39.45,33.38-12.37,3-24.95,3.6-37.63,3.11a72.47,72.47,0,0,1-21.95-4.12c-10.79-3.91-19.08-10.53-22.9-21.89-2.61-7.78-2.05-15.35.64-22.93.46-1.3.81-2.65,1.44-4.72-8.34.94-15.9,1.82-23.47,2.65-21,2.33-41.82,5.45-62.19,11.09a81.81,81.81,0,0,0-13,4.87c-3.6,1.71-3.84,3.28-2.59,6.87,2.28-2,4.66-4.34,7.26-6.37,1.84-1.43,4.12-2.72,6.4-1.18s2.68,4.09,2.21,6.7a17.56,17.56,0,0,1-1.13,3.81c-1.93,4.4-4,8.76-5.94,13.14-.51,1.14-.92,2.31-1.28,3.22,3.47,1.84,6.7,3.22,9.56,5.14,4.14,2.8,4.67,7.89,1.43,11.69a26.06,26.06,0,0,1-3.81,3.17,62.37,62.37,0,0,0-5.45,4.33c-5.75,5.81-4.8,11.55,2.14,16,2.73,1.74,5,4.28,7.42,6.44,1.22,1.06,2.31,2.56,3.73,3.06C83.64,292.75,91.68,295.29,99.82,298Zm.06,1.61-26.44-8c.09,4.39-3.08,4.77-6.17,4.9-3.65.15-7.31.07-11-.06-6.49-.23-12.18-3.9-18.78-4.16-3.51-.13-4.65-4-2.21-6.8,1.56-1.75,4-2.8,6.13-3.93,1.14-.6,3-.32,3.71-1.14,3.05-3.48,7-4.71,11.64-5.21-.45-6.1,2.27-10.46,6.77-13.84,1.72-1.3,3.67-2.29,5.34-3.63,4.63-3.73,4.37-8.7-.71-11.7-2.66-1.57-5.61-2.64-8.83-4.12-1.63,3.52-3,6.58-4.58,9.94,3.27.82,6.56-.63,8.53,3-3.88,1.89-8.09,1.24-11.94,1.32-2.66.05-5.2-1.1-7.54,1.15-.35.34-1.51-.14-2.28-.29-1.58-.31-3.16-.62-4.71-1a7.64,7.64,0,0,1-2.71-1c-4.39-3.29-8.88-6.47-13-10.1a31.14,31.14,0,0,1-5.35-7.1c-1.16-1.86-1.73-4.07.09-6a5.28,5.28,0,0,1,6-1.35,28,28,0,0,1,6.89,3.84c2.95,2.3,5.58,5,9.08,8.25-.87-6.11-1.38-11.32-2.45-16.42-.52-2.52-2-4.89-5.45-5.3-.2,1.92-.38,3.65-.51,4.88-2.62-1-5.44-1.61-7.6-3.12-3.55-2.48-5.87-.75-8.24,1.53-4.29,4.11-6.7,9-6.19,15.11a18.15,18.15,0,0,0,7.24,13.13A83.86,83.86,0,0,0,25.17,259c8.67,4.94,9.4,7.16,4.85,15.78l-.24.44c-5.22,9.95-4.05,18.25,3.8,26.28a47.76,47.76,0,0,0,16.23,11.38c8.31,3.32,16.67,6.72,25.3,9,28.06,7.43,56.8,10.44,85.71,11.93a568,568,0,0,0,69.77-.7,428.31,428.31,0,0,0,60.66-8.24c18.88-4.11,37.35-9.49,54.11-19.53,6.92-4.14,13.25-9,17.76-15.75,5-7.44,6-15.35,1.48-23.49-.73-1.3-1.58-2.54-2.29-3.86-2.19-4-1.85-6.49,1.32-9.89,1.7-1.82,3.59-3.48,5.11-5.44,4.86-6.24,5.47-13.85,1.15-20.45a37.57,37.57,0,0,0-8-8.71A68.4,68.4,0,0,0,341.16,207c-1.05-.36-2.16-.53-3.61-.87-.66,2.44-1.25,4.59-1.73,6.36,5.62,3.75,10.66,7.25,15.85,10.52a9.78,9.78,0,0,1,4.12,5.4,22.61,22.61,0,0,0,1.45,2.72c.66-1.66,1-2.75,1.52-3.78s1.05-1.75,1.94-3.21c1,2.13,1.63,3.55,2.2,4.77l4-.68a13.49,13.49,0,0,1-6.56,12.94c2.65-3.5,4.55-6.87,4.91-11l-4.46,5.28c-.58-1.67-.95-2.74-1.45-4.2L357,238.17c-3.33-11.63-3.33-11.63-6.45-13.37-1.29,6.53.84,14-5.33,19-.9-1-1.85-2.12-3.56-4.06.93,3.55,1.54,5.93,2.32,8.94l-4.76-2.33c.59,2.91,1.1,5.4,1.61,7.89l-.95.28c-1.05-2.61-2.09-5.22-3.38-8.42-2.41,1.59-4.52,2.62-6.17,4.14-2.94,2.71-2.88,4.8-.13,7.67,1.27,1.31,2.76,2.4,4.07,3.68,6.35,6.24,6.66,14,.27,20.2a46.46,46.46,0,0,1-10.88,7.76c-14.74,7.68-30.71,11.54-47,14.23a449.22,449.22,0,0,1-55.51,5.54,520.26,520.26,0,0,1-81.64-3.17c-9.89-1.16-19.71-2.91-29.56-4.35a11.57,11.57,0,0,0-2.45.28c.21,2.34.39,4.48.61,7l4.74-3.48c1,5.39-.73,9.54-2.06,13.75l-1.08-.2q1.23-5.31,2.47-10.63l-.76-.37-4.5,6.47c-1.67-6.47,0-12.76-2.47-18.37l-1.17-.06c-.78,4.25-1.56,8.51-2.39,13.08l-5-5.75-1.18.62,3.71,13.94-1,.22c-1.39-4.24-2.89-8.45-4.11-12.74-.3-1.06.29-2.38.47-3.59,1.19.31,2.41.57,3.58.95.44.15.75.66,1.18.88.2.1.55-.09,1-.17.1-.6.25-1.24.31-1.89S99.88,300.47,99.88,299.57Zm189.68-70.44a46.83,46.83,0,0,0,5.59,2c6.18,1.24,12.42,2.18,18.57,3.53a21.7,21.7,0,0,0,10.8-.22c2.77-.78,4-2.43,4.53-5.21a82.21,82.21,0,0,1,2.48-10.13c1.18-3.79,2.74-7.47,4-11.24a18.27,18.27,0,0,0,.26-3.79c-4.39,2.44-5.15,6.52-7.28,9.58.27-5.08,3.4-8.67,6.58-12.26-3.91-1.64-4.78-1.55-6.77,1.52s-3.81,6.57-5.77,10A38.55,38.55,0,0,1,308.44,210c-3.08-1.28-3.94-2.77-2.69-5.86,1.44-3.54,3.5-6.83,5.38-10.4a2.42,2.42,0,0,0-3.64.16,17.31,17.31,0,0,0-3.28,4.22c-3.48,6.77-5.32,14.28-9.63,20.71C292.6,221.83,291.4,225.3,289.56,229.13ZM322.14,180l7.92,4.39c2.11-6.06,4.26-12.07,6.26-18.13.4-1.19.78-2.85.27-3.81-1.82-3.41-.25-5.95,1.4-8.76a35.69,35.69,0,0,0,3.69-8.08A7,7,0,0,0,339.2,138c-2.4-1.9-5.05-1.12-7.45.28-4.53,2.64-7.61,6.34-8.17,11.76-.23,2.3-.52,4.58-.79,6.94-4.07,1.18-5.47,4.16-6,7.84-.72,4.75-1.62,9.47-2.33,14.22a14.26,14.26,0,0,0,.27,3.21c5.59-1,5.44-1.06,6.73-5.86,1.8-6.72,3.69-13.43,5.9-20,1.19-3.55,3.13-6.85,4.73-10.27-1.34,5.84-3.7,11.25-5.48,16.84S323.57,174.36,322.14,180ZM35.56,215.23a12.71,12.71,0,0,0,.12-2.88c-1.71-9.28-3.74-18.48-7.74-27.12A47.38,47.38,0,0,0,17.71,170.7c-1.59-1.53-3.3-2.44-5.32-1.42s-2,3-1.67,4.82a57.31,57.31,0,0,0,2.59,9.53c3.25,8.14,7,16.09,10.09,24.29C25.52,213.55,28.45,217.05,35.56,215.23Zm11.16-19a19.35,19.35,0,0,0-6.16,9.29c-5.29,16-2.81,31.67,2.74,47.1.05.12.25.19.47.35,1.66-.2,2.89-.68,3.14-2.83,1.21-10.37,2.63-20.7,3.82-31.07a122,122,0,0,0,.9-13.37C51.64,202,50.68,198.51,46.72,196.24ZM312.64,185c.37-6.25.67-11.32,1-16.6-2.72-.72-3.48-2.62-3.48-5.25,0-3.55-.73-7.06-3.16-9.76a98,98,0,0,0-8.22-8,5.64,5.64,0,0,0-6.11-.88c-2.39,1-3.38,3.1-3.48,5.6-.15,4,1.67,7,4.43,9.64,1.27,1.21,2.46,2.51,3.57,3.65-3.1,5.67-3,5.85,1.44,10.11,2.37,2.26,5.16,4.14,6,7.72.44,1.92,2.18,2.18,4.51,1.8-2.47-11.26-7.09-21.45-11.53-31.74a62,62,0,0,1,6,10.31c1.72,3.77,3,7.74,4.69,11.52C309.82,176.66,309.13,181,312.64,185ZM172.53,157c-9.81-1.57-13.59-1-23.56,3.14a30.23,30.23,0,0,0,3.65.55q9.44.1,18.87.07a9.25,9.25,0,0,0,3.39-.6c3.48-1.41,4.2-4.83,1.63-7.6a12.67,12.67,0,0,0-2.35-1.81,17,17,0,0,1-6.59-8.46c-1.71-4.58-6.69-5.33-9.6-1.43-3.94,5.29-9.3,8.31-15.34,10.44-1.78.63-3.48,1.49-5.39,2.32,1.4,2.88,3.44,4,5.82,4a52.08,52.08,0,0,0,9.33-.78c3.89-.7,7.68-2,11.58-2.69C166.74,153.64,169.52,154,172.53,157ZM60.78,223.28c-5.18,9.05-8,18.78-9.52,29.69,1.07-.72,1.46-.83,1.58-1.07,3.54-7.11,7.16-14.19,10.54-21.38a73.84,73.84,0,0,0,3.8-10.23c.61-2,1-4.86-1.33-5.7-1.35-.49-3.86.74-5.18,1.94-5.11,4.62-9.43,9.82-9.94,17.2-.15,2.14-.77,4.24-1,6.38-.46,3.7-.82,7.41-1.22,11.12l1.17.31C51.79,241.47,53.74,231.31,60.78,223.28Zm142.54-74.63c2.6-7.31,1.44-14.14-2.17-20.57a18,18,0,0,0-8.66-7.94c-5.44-2.32-11-4.49-16.44-6.71-.09,0-.28.15-.65.37.29.51.6,1,.86,1.54s.56,1.26,1,2.14h-5.58l2,2.25c-8.5,3.91-12.79,9.35-12.92,17.31,1.9-2.49,3.27-4.21,4.56-6,5.41-7.46,14.05-10.87,22.73-8.53s12.82,8.86,14.32,17.29C202.84,142.73,203,145.7,203.32,148.65ZM348.51,176l-9.43,9.36,6.37,3.14c.37-.08.54-.1.7-.15,3.41-1,2.4-4.94,4.48-6.71s4.84-2.94,6.69-4.93.75-4.76-2-5.34a11.17,11.17,0,0,0-5.86.16,74.47,74.47,0,0,0-11.24,5.22c-3.29,1.89-4.62,5.23-5.61,9.57C339.91,184.79,342.28,177.62,348.51,176Zm-44.72,19.24A106.55,106.55,0,0,0,279.16,191c-.26,2.9-.48,5.29-.68,7.54.5.36.74.66,1,.71,5.2.91,10.41,1.76,15.6,2.67,4.76.84,5,.74,7.33-3.63C302.88,197.45,303.23,196.53,303.79,195.26Zm-109.1-18.17a48.46,48.46,0,0,1-27.27.45,22.49,22.49,0,0,0-1.6,2.39,18.66,18.66,0,0,0-.8,2.4c9.45,4.19,18.65,3.7,27.87.65C195.57,182.1,195.42,179.93,194.69,177.09Zm132.76,24.56c-3.9-1.2-7.3-2.38-10.76-3.27-2.67-.7-3.58,0-4.37,2.56s-.25,4.49,2.05,5.2c2.95.91,6,1.55,9.32,2.4C325,206.22,326.1,204.12,327.45,201.65Zm-256,88.74c-1.21-3.61-3.29-6.35-6.88-7.05-3.81-.75-7.29.52-10.63,3.88ZM59.34,279.23c-5.07-3.88-9-.76-15.67,4.88,4.36,1.41,4.37,1.43,6.45.28C53.23,282.67,56.33,280.92,59.34,279.23Zm122.54-136.1a3.46,3.46,0,0,0,3.54-3.43c0-1.86-.74-3.25-2.67-3.58-1.66-.29-3.31,1.42-3.42,3.47C179.22,141.47,180,142.77,181.88,143.13Zm72.77,44.27-15.17-2C243.91,188.93,248.5,191.2,254.65,187.4Zm66.9,23.41c-3.05-2.51-9.45-4.23-13.83-3.71C310.81,210.09,316.24,211.55,321.55,210.81Zm-14.13-6.42,1.28.7c2.29-1.51,2-4,1.27-6.56ZM198.06,184.23l.12,1.37,5.68-.6-.09-1.08Z"/><path class="cls-1" d="M267.49,86.23c-10.12,0-20.25,0-30.37,0a20.2,20.2,0,0,1-5.87-.73c-6.59-2.06-9.33-8.51-6.27-14.64,1.48-3,3.17-5.82,4.84-8.69q14.06-24,28.16-48.06c1.35-2.32,2.9-4.42,5.64-5.33,4.9-1.64,9.3-.12,12.32,4.79,3.9,6.36,7.56,12.86,11.32,19.31Q297,49.62,306.75,66.41a34.89,34.89,0,0,1,2.95,5.73c2.54,7.11-1.78,13.62-9.34,14.06-3.64.21-7.3,0-10.95,0q-11,0-21.92,0Zm18.75-30.18c0-10.69-8.41-18.84-19.51-18.92-10.29-.08-19.05,8.24-19.16,18.19-.13,10.85,8.55,20,19.06,20.16A19.32,19.32,0,0,0,286.24,56.05Z"/><path class="cls-1" d="M92.25,118.72c-4.52,2.54-9.14,4.91-13.52,7.68-1.64,1-3,2-5,1.39a1.73,1.73,0,0,0-1.42.18c-2.54,3-6.93,1.62-9.58,4.54-3-2.92-4-6.49-4.84-9.92a36,36,0,0,0-7.41-15,46.21,46.21,0,0,1-7.35-12.82c5.63-3.25,10.85-6.49,16.27-9.33A116.9,116.9,0,0,1,71.9,80.06c.79-.31,2,.47,3,.85.23.08.36.54.46.85,3.91,12.79,12,23.6,17,35.87C92.42,117.77,92.34,118,92.25,118.72Zm-28.07-6.2c5.52-.07,10.88-3.48,12.19-7.47A7.78,7.78,0,0,0,76,99.94c-.86-1.94-3-1.82-4.86-1.44a14.12,14.12,0,0,0-9.74,7.09c-.79,1.41-1.25,3.76-.6,5S63.67,112.26,64.18,112.52Zm9.5-30.27-.79-.57a9.57,9.57,0,0,1-2.48,1.53c-8.47,2.12-15.31,7.61-23.12,11.1-1.43.64-2.32,1.33-1.07,2.86.21,0,.41.15.53.09,8.71-4.33,17.42-8.66,26.09-13.08C73.32,83.93,73.41,82.91,73.68,82.25Zm16.94,35.41c-1.25-2.64-2.66-1.47-3.85-.87-3.55,1.78-7,3.68-10.58,5.45s-7.34,3.53-11.72,5.62c3.65.47,9.8-2.77,13.3-3.61C82.83,123,85.75,118.87,90.62,117.66Z"/><path class="cls-1" d="M70.33,50.11a6.28,6.28,0,0,1,2.23.46C77.69,54,82.71,57.5,87.88,60.8a26.43,26.43,0,0,0,6.33,2.82c.84.26,2-.49,3-.77C97,61.94,97,60.7,96.4,60.2a83.18,83.18,0,0,0-7.55-5.68c-4.15-2.75-8.44-5.28-12.59-8-.82-.55-1.27-1.65-1.34-3.24,1,.37,1.93.67,2.84,1.1q7.89,3.7,15.76,7.47c1.82.86,3.63,1.57,5.92-.06-1.12-3.17-3.82-4.61-6.23-6.09-7.36-4.52-14.85-8.84-22.29-13.23-.82-.48-1.65-.94-3.58-2,2.67-.73,4.35-1.13,6-1.66a57.11,57.11,0,0,0,8.38-3,4.41,4.41,0,0,0,1.82-3.67c-.27-1.85-2.23-1.39-3.73-1.4-9.28,0-18.56,0-27.84-.26a13,13,0,0,1-5.6-1.79C37.58,13.84,30.16,7.23,22.57.85L23.12,0c1.6,1.17,3.21,2.33,4.8,3.51Q36.32,9.75,44.72,16a15.89,15.89,0,0,0,10.75,3.09c3.46-.19,7,.45,10.42.48,4.81.05,9.63,0,14.44-.23,2-.08,3.71.17,4.69,2s0,3.81-1.36,4.88a26.92,26.92,0,0,1-6.1,3.1,54.58,54.58,0,0,1-5.44,1.57l11.44,7c4.1,2.53,8.21,5.06,12.28,7.63A28.46,28.46,0,0,1,99,48c1.38,1.16,2.15,2.65,1.35,4.41a3.51,3.51,0,0,1-4.62,1.87,51.83,51.83,0,0,0-7.24-2.17c1.17.84,2.36,1.66,3.51,2.54,1.71,1.32,3.47,2.58,5,4s3,2.89,1.5,5.14-3.43,1.74-5.37,1C90.7,64,88.27,63,84.66,61.53c1.72,1.9,3,2.87,3.64,4.16s.86,3.07.27,4-2.45,1.58-3.71,1.52-2.76-1-4.09-1.68-2.49-1.37-4.2-2.32c-.1,2.31,1.71,4.94-.89,5.64-1.63.44-3.79-.41-5.52-1.14a22.52,22.52,0,0,1-4-2.91c-5.72-4.25-11.36-8.63-17.2-12.72-5-3.47-9.47-7.31-12.42-12.69a15.63,15.63,0,0,0-6.68-6.5q-9.69-5.11-19.37-10.27A10.28,10.28,0,0,1,6.3,23.18c2.31,1,4.72,1.75,6.92,2.92,6,3.2,12,6.4,17.85,9.95a20,20,0,0,1,6,5.72c3.68,5.46,8,10.26,13.6,13.66A121.37,121.37,0,0,1,69.05,69.07c1.64,1.47,3.41,3.31,6.8,2C72.81,65.2,67,61.82,64,56.22,72.32,59.58,77.86,67.59,86.49,70c1.68-1.75,1.24-2.89.14-3.9-1.85-1.68-3.76-3.27-5.6-4.95-3.72-3.38-7.4-6.79-11.09-10.18Z"/><path class="cls-1" d="M122.07,71.46a38.63,38.63,0,0,1,4.23.84A46.23,46.23,0,0,1,145.12,83a18.14,18.14,0,0,1,4.15,6.06A8.88,8.88,0,0,1,145.12,101c-2.32,1.19-3.25,2.81-4.21,5.05-2.13,5-4.59,9.92-7.2,14.71-2.11,3.88-5,4.78-8.72,2.87-6.93-3.53-13.85-7.1-20.61-10.94-5.88-3.35-6.48-5.89-3.33-11.78,2-3.65,3.91-7.3,6.09-10.82,1.74-2.81,3.17-5.3,2.93-9C109.7,75,114.42,71.37,122.07,71.46ZM124.75,122c1.37-2.16,2.33-3.49,3.11-4.92,2.84-5.25,5.54-10.59,8.49-15.78A12.76,12.76,0,0,1,140.18,97c3.89-2.54,5.18-4.83,3.41-9a15.78,15.78,0,0,0-4.83-6.69,70.41,70.41,0,0,0-13-7.12c-2.3-1-5.23-.94-7.8-.67-4,.42-7.22,4.2-6.35,8.09.73,3.26-.48,5.38-2,7.76-2,3.09-3.91,6.18-5.7,9.36a44.37,44.37,0,0,0-2.67,5.87,3.93,3.93,0,0,0,1.74,5.19C110,113.83,117.08,117.73,124.75,122Z"/><path class="cls-1" d="M132.69,47.33c-.58,7.78-7.48,15.06-15,15.44-2.66.13-5-.57-6.42-2.94s-.87-4.86.87-6.9a25.73,25.73,0,0,0,5.69-12c.51-2.53,1.85-4.75,4.72-5.16a6.31,6.31,0,0,1,6.4,3C130.56,41.47,131.48,44.49,132.69,47.33Zm-2.24-.52c-.42-1.18-1.12-3.53-2.07-5.79a5.29,5.29,0,0,0-5.42-3.6c-2.76.18-3.22,2.51-3.74,4.6-1.07,4.21-2.51,8.23-5.51,11.51-1.44,1.57-2.55,3.64-1.07,5.32a7.71,7.71,0,0,0,5.12,2.29C123.87,61.28,130.49,54.23,130.45,46.81Z"/><path class="cls-1" d="M3.54,55.62c8.83-2.9,32.86,4.32,39.72,15.79-4.25-3-7.84-6.12-11.93-8.27a65.2,65.2,0,0,0-13.44-5.07C13.41,56.87,8.71,56.47,3.54,55.62Z"/><path class="cls-1" d="M93.66,137.06a5.17,5.17,0,0,1-2-.5c-1.29-.86-3.16-1.78-3.44-3-.47-2,1.44-3.33,3.3-3.55,3-.34,4.58-2.37,6.4-4.26,1.23-1.27,2.86-2.26,4.32-1a5.37,5.37,0,0,1,1.33,3.87C103.38,133,98.66,137,93.66,137.06Zm-4-3.57c4.47,2.48,6.94,2.34,9.93-.4,2.47-2.26,2.65-3.19,1.32-6.64Z"/><path class="cls-1" d="M206.48,120.15c.93-1.86,1.57-4,2.87-5.51a9,9,0,0,1,4.47-2.67,3.57,3.57,0,0,1,3.1,1.54,3.44,3.44,0,0,1-1.16,3.2c-2.67,1.58-5.59,2.73-8.42,4.05Z"/><path class="cls-1" d="M305,44.65c4.37-1.76,8.59-.82,12.66-.85.81,0,1.63,1.08,2.63,1.8C316.14,48.23,308.52,47.81,305,44.65Z"/><path class="cls-1" d="M212.52,127.61c3.56-2.6,6.39-2.56,9.25-1.39,1.65.67,2.84,2,2.07,3.91s-2.47,1.54-3.86,1C217.71,130.24,215.55,129.06,212.52,127.61Z"/><path class="cls-1" d="M317.06,29.5c-4.08,3.85-8.72,5.36-13.34,8.17-.16-1.45-.52-2.61-.27-2.76,3.77-2.27,7.6-4.43,11.46-6.53C315.14,28.26,315.71,28.77,317.06,29.5Z"/><path class="cls-1" d="M302.42,17c.71,1.63,1.31,2.34,1.24,3-.24,2.21-3.9,8.36-6.12,10.55-.41-.46-1.22-1-1.14-1.34C297.36,25.06,299.58,21.52,302.42,17Z"/><path class="cls-1" d="M141.24,66.09c-3.64-.21-5.38-1.55-5.14-3.25a4.18,4.18,0,0,1,4.26-3.32c2.16,0,4.4,2.36,3.64,4.23C143.51,64.94,141.81,65.64,141.24,66.09Zm.92-2c-.49-.89-.67-1.62-1.11-1.84a1.53,1.53,0,0,0-1.44.54,1.64,1.64,0,0,0,.55,1.48C140.53,64.49,141.23,64.19,142.16,64.08Z"/><path class="cls-1" d="M40.76,81.32c-3.41-2.88-5.84-5.26-8.59-7.16s-5.89-3.38-9.33-5.3C29.83,69.71,36.72,74.39,40.76,81.32Z"/><path class="cls-1" d="M65.69,33.37c-5,5.13-10.15,6.18-15.44,3.57,2.86-.16,5.65,0,8.26-.56S63.3,34.41,65.69,33.37Z"/><path class="cls-1" d="M193.06,291.72c4.18-6.31,8.25-11.51,15-13.64a21.53,21.53,0,0,0,12.76-10.4,31,31,0,0,1,2.14-2.82c1.83,1.41,3.5,2.72,5.36,4.16-2.58,1.55-4.71-3.43-6.8.3,22.9,15.71,22.9,15.71,26,14-4.35-2.92-8.54-5.64-12.6-8.53a4.7,4.7,0,0,1-1.71-3.48l15.55,10.43c.1.4.21.58.17.72-1.47,5.41-11,12.66-16.36,12.27-3.64-.26-7.26-.75-10.88-1.28a40.88,40.88,0,0,0-15.31.41A17.08,17.08,0,0,1,193.06,291.72Zm33.83-.17c-.53-6.15-5.25-10.18-11-9.73-2.19.17-3.89,1-4.53,3.17-.52,1.7,1.4,4.95,3.38,5.44C218.73,291.41,222.75,292.14,226.89,291.55Z"/><path class="cls-1" d="M163.27,286.57a41.72,41.72,0,0,1-14.44,1.9c-9.3-.1-18.6-.36-27.9-.66-7.19-.24-12.68-3.64-16.45-9.66-1.78-2.84-3.27-5.76-6.79-6.87-1.89-.6-2.3-2.16-2.06-4,.71-5.36,3.27-6.84,8.49-5.49a10.85,10.85,0,0,0,6.2-.38c4.91-1.86,9.43-1.2,13.93,1.06,1.19.6,2.36,1.24,3.57,1.78,9.66,4.33,19.35,8.61,29,13C161.86,279.49,163.14,281.35,163.27,286.57Zm-37.61-21.28c-5-3-9.72-4.58-15-2a7.72,7.72,0,0,1-2.85.78c-1.86.12-3.82,0-4.27,2.4-.35,1.91-1.34,4.19-.67,5.69,3,6.67,7.17,12.31,15.49,13.35A65.07,65.07,0,0,0,125.66,265.29Zm11.43,20.23c8.6,1,16.39,2.36,24.23-.16a4.51,4.51,0,0,0-2.69-5.45c-5.74-2.54-11.62-4.77-17.6-7.19Z"/><path class="cls-1" d="M127.44,206.9l7.6-2.3,3.85,9.58c-5.91,1.42-8.6,5.75-11.87,9.61a11.32,11.32,0,0,1-6,3.19c-10.36,2.26-20.77,4.44-31.47,2.06A83.64,83.64,0,0,0,81.18,228c-4.12-.5-5.33-2-4.08-6,.52-1.62,1.61-3.56,3-4.29a101,101,0,0,1,12.26-5.31c3.84-1.43,7.84-2.44,11.73-3.75a49.14,49.14,0,0,0,6.42-2.63C116.51,203,122.27,203,127.44,206.9ZM98.68,213c-2.33.78-3.65,1.57-5,1.61-5,.16-9.06,2.61-13.27,4.74A3.76,3.76,0,0,0,78.56,224c.5,1.88,1.9,2.34,3.76,2.5,3.61.31,7.17,1.13,10.78,1.4,3.36.25,6.76.05,10.68.05C102,222.65,100.35,217.9,98.68,213Zm12.7-5.25c2.48,6.2,4.86,12.12,7.2,18,6.88-.79,9.56-5.41,11.79-10.29a5.45,5.45,0,0,0-2.25-6.54C123.05,206,117.79,204.3,111.38,207.73Z"/><path class="cls-1" d="M265.49,271.12c4.08-1.7,8.07-3.69,12.27-5a13.34,13.34,0,0,0,7-5.12c1-1.33,2.29-2.44,3.14-3.84,2.41-4,6.05-4.22,9.79-3,4.85,1.63,9.54,3.75,14.28,5.71a3.26,3.26,0,0,1,2.17,4c-.41,2.27-.67,4.58-.9,6.88-.27,2.87-2,4.26-4.65,4-5.58-.61-9.75,1.92-14,5-6.31,4.58-14.94,3.87-21.11-1.08-2.65-2.13-5.42-4.12-8.14-6.17Zm45.74-9.81c-3.23-1.32-6-2.45-8.71-3.55a34.16,34.16,0,0,0-4.64-1.74c-3.91-.91-7.41-.78-9.93,3.25-3,4.87-7.22,8.37-13.1,9.68-2.56.56-4.94,1.94-7.65,3.05,3.52,2.6,6.49,4.94,9.63,7a10.28,10.28,0,0,0,4.14,1.44c5.61.82,10.8-.12,15.35-3.84,1.64-1.34,3.72-2.13,5.49-3.33.86-.59,2.14-1.66,2.05-2.35-.35-2.69,1.6-3.65,3.08-5.07S309.59,263.07,311.23,261.31Zm.56,2.63c-1.92,1.47-3.8,2.19-3.83,4.62,0,1.69-4.5,1.59-1.86,4.45,5.07-.15,5.11-.19,5.38-4.83C311.55,266.93,311.66,265.68,311.79,263.94Z"/><path class="cls-1" d="M166.12,281.5c5.35,3.13,5.54,6.27.61,9.31-3.52,2.17-7.5,2.59-11.47,2.65-3.47.05-6.94-.31-10.4-.6-8.22-.7-16.43-1.46-25.43-2.26,7,0,13.23-.08,19.43,0s12.57.6,18.84.5a20.88,20.88,0,0,0,7.6-1.95c3.54-1.5,3.72-2.7,1.62-6.08-.17-.28-.48-.47-.64-.75A3,3,0,0,1,166.12,281.5Z"/><path class="cls-1" d="M150.91,243.81c10.79,6.54,23.16,7.46,35,10.32,2.51.61,5,1.16,7.54,1.74-.07.32-.14.64-.22,1-4.73-.63-9.54-.9-14.17-1.95-7.55-1.72-15.44-2.26-22.43-6.06C154.31,247.59,152,246.4,150.91,243.81Z"/><path class="cls-1" d="M245.74,250.52c-4.26,4.45-26.13,7.62-36.58,5.31Z"/><path class="cls-1" d="M135.33,244.61c4.47,7.2,11,9.65,17.94,11.53a67.87,67.87,0,0,1,12.17,4.05,13.22,13.22,0,0,1-2.57.17c-7.8-.95-15.36-2.73-22.2-6.75C137.63,251.82,135,249.62,135.33,244.61Z"/><path class="cls-1" d="M302,239.51c-6-1.8-12.23-3.23-18.08-5.52-3.85-1.52-3.68-3.61-.22-6.34-.85,3.31-.77,3.85,2.13,5.08a72.43,72.43,0,0,0,8,2.54C296.74,236.13,299.86,236.54,302,239.51Z"/><path class="cls-1" d="M131.63,227.86c.22,2.63-1.36,4.1-3.43,4.77a24,24,0,0,1-16-.15c.64-.06,1.27-.14,1.91-.16a18.49,18.49,0,0,0,2,0c3.72-.52,7.48-.89,11.14-1.71C128.71,230.29,130,228.94,131.63,227.86Z"/><path class="cls-1" d="M246.69,292.66c.26,3.22-1.1,4.56-3.24,5.46-4.31,1.81-12.31,2-17.55.08C232.87,297.65,240.5,299.59,246.69,292.66Z"/><path class="cls-1" d="M256.46,249.87l6.7-11C265.57,246.05,264.82,247.27,256.46,249.87Z"/><path class="cls-1" d="M318.45,273.78c1.12,4.05-1.11,5.1-3.37,5.51a59.88,59.88,0,0,1-11.69.88c2.49-1.53,5.24-1.8,8-2.05S317,277.54,318.45,273.78Z"/><path class="cls-1" d="M196.71,296.39c-6.56.27-8-.56-8.78-5.08C189.59,295.35,193.76,294.73,196.71,296.39Z"/><path class="cls-1" d="M326.52,239.11l7.85-5.12C334.85,237.24,333.18,238.58,326.52,239.11Z"/><path class="cls-1" d="M262.41,276.94l9.14,4.41C266.69,281.83,264.53,280.76,262.41,276.94Z"/><path class="cls-1" d="M108.45,288.14c-2.89.24-5.92.42-7.25-3.79Z"/><path class="cls-1" d="M73.65,225.22l2.9,4.34C72.59,228.31,72.59,228.31,73.65,225.22Z"/><path class="cls-1" d="M249,258.62l-5.88,1.52-.2-.67,5.8-2Z"/><path class="cls-1" d="M308.52,241.38h4l0,.74-4-.29Z"/><path class="cls-1" d="M230,271.57c-.07-.77-.13-1.55-.2-2.33l.81-.12.51,2.31Z"/><path class="cls-1" d="M324.82,308a51.53,51.53,0,0,1-6-1.46c-1.9-.68-2.28-2.3-1.39-4.08,2.8-5.57,12.52-6.48,16.2-1.55,1.87,2.51,1.27,4.92-1.7,5.79A65.41,65.41,0,0,1,324.82,308Zm-6-3.65c5.54,2.49,9.87,2.14,14-1C329.15,297.53,322.55,297.83,318.84,304.33Z"/><path class="cls-1" d="M73.37,313.22a42.82,42.82,0,0,1-5.9-1.67,2.56,2.56,0,0,1-1.14-4.11c1.73-2.61,4.17-4.46,7.38-4.09s6.4,1.76,8,5c.86,1.75-.07,3.53-2.23,4.09A50.78,50.78,0,0,1,73.37,313.22Zm6.75-3.51c-4.62-6.27-9.54-6.19-12.6.31C71.81,311.56,75.86,312,80.12,309.71Z"/><path class="cls-1" d="M341.41,284.39c5-3.74,10.66-4,15.14-.87C352.39,287.47,345.76,288,341.41,284.39Z"/><path class="cls-1" d="M125.57,322.27c3.25-3.27,8-4.27,11.17-2.42.63.37,1.51,1.27,1.4,1.72a3.29,3.29,0,0,1-1.63,2.09C132.65,325.32,129,324.71,125.57,322.27Z"/><path class="cls-1" d="M52.2,266.45c-4.25,3.25-8.25,3.38-11.49.36C43.43,263.3,48.54,263.14,52.2,266.45Z"/><path class="cls-1" d="M151.27,317.06c4.09-1.88,7.14-3,10.53.14C158.32,319.37,155.27,319.34,151.27,317.06Z"/><path class="cls-1" d="M244.16,319.5c-3.9,1.73-4.22,1.75-8.58.73C237.94,317.57,239.68,317.37,244.16,319.5Z"/><path class="cls-1" d="M290,307.57c1.89,3.18,1.46,6.39.55,9.62C288.83,314.07,289.2,310.81,290,307.57Z"/><path class="cls-1" d="M294.35,318.12c-.64-4.42.74-7.15,2.5-9.77C297.38,311.63,296.07,314.38,294.35,318.12Z"/><path class="cls-1" d="M286,318.3c-.91-2.86-1.83-5.72-2.74-8.58A9.38,9.38,0,0,1,287.1,318Z"/><path class="cls-1" d="M353.45,255.81h-6.37c2.54-2.3,4.41-1.88,6.29-1.31C353.4,254.94,353.42,255.37,353.45,255.81Z"/><path class="cls-1" d="M344.35,214.13l-4.51-1c2.3-2.31,3.7-2.21,4.87-.29Z"/><path class="cls-1" d="M211.86,325c.5.84,1.15,1.46,1,1.82-.21.65-.9,1.14-1.38,1.69a6.49,6.49,0,0,1-1-1.95C210.41,326.14,211.18,325.67,211.86,325Z"/><path class="cls-1" d="M225.75,198.38l8.14,1C231.54,201.05,230.47,201,225.75,198.38Z"/><path class="cls-1" d="M220.88,214.47h5.62v.3h-5.62Z"/><path class="cls-1" d="M195.25,211.17,193,208l1-.53,1.14,3.81Z"/><path class="cls-1" d="M74.35,197.27c2.85.47,1.36,2.07,1.18,3.34l-1,.08v-3.58Z"/><path class="cls-1" d="M31.28,209.68C26.75,198.85,22.2,188,18,177.92,21.75,181.29,30.72,202.07,31.28,209.68Z"/><path class="cls-1" d="M44.16,247.05c-4.23-13.53-1.41-26.81,1.16-40.09C44.62,220.32,42,233.63,44.16,247.05Z"/><path class="cls-1" d="M275.48,65.78c-5.84-4.52-11.48-4.09-17.17.66.49-4.15,3.31-6.51,7.39-6.85C270.51,59.19,274.51,61.45,275.48,65.78Z"/><path class="cls-1" d="M278,53.23c-.78.57-1.86,2-3.13,2.17-1.79.3-2.44-1.38-2.45-3a2.52,2.52,0,0,1,2.73-2.79C276.91,49.61,277.8,50.58,278,53.23Z"/><path class="cls-1" d="M258.67,48c1.35,2,2.45,3,2.71,4.18a2.67,2.67,0,0,1-2.86,3.13,2.36,2.36,0,0,1-2.28-3.07C256.48,51.07,257.46,50.05,258.67,48Z"/><path class="cls-1" d="M286.68,265.87a20.4,20.4,0,0,1,9.58,3.15l-.48,1.06Z"/><path class="cls-1" d="M279.39,273.6,274.84,271c2.34.45,4.27.15,4.5,2.65Z"/><path class="cls-1" d="M293.39,265.07l-3.48-1.22c0-.18.1-.37.16-.55l3.72,1Z"/><path class="cls-1" d="M279.34,273.67c2-1.26,3.52-.33,4.91,1.3-1.6-.47-3.2-1-4.83-1.4Z"/></g></g></svg>