<svg xmlns="http://www.w3.org/2000/svg" viewBox="0 0 415.8 406.12"><defs><style>.cls-1{fill:#0b798e;}</style></defs><g id="Capa_2" data-name="Capa 2"><g id="Capa_1-2" data-name="Capa 1"><path class="cls-1" d="M194.93,231.33c4-.84,8.15-.34,12.12-2.08,1.61-.71,4.08.54,6.95,1,3.35-3.19,5.71-7.92,8.54-12.16-3.76-6-3.64-7.06.7-13a18.42,18.42,0,0,0,1.68-4.07c1.36-3.35,3.22-4.47,6.88-4.36a5.67,5.67,0,0,0,3.21-.57c3.51-2.44,6.5-1.83,9.36,1a23.46,23.46,0,0,0,2.49,1.87,44.64,44.64,0,0,0,5.94-4.45c1-1.06,1.36-2.89,1.87-4.41.37-1.08.37-2.3.8-3.35,2.37-5.78,6.39-6.3,10.21-1.39.49.63,1.09,1.17,1.92,2,3.63-3.79,5-8.29,6.14-12.91a4.3,4.3,0,0,0-.09-2c-4.15-17.67-17.62-25-34.52-19.69a33,33,0,0,0-8.79,4.6,45.13,45.13,0,0,1-31.57,8.14c-8.87-.93-19.1,5.61-22.32,13.88-.91,2.34-.71,5.17-.72,7.78a38.16,38.16,0,0,0,.8,4.9c.87,6.79-1.58,12.15-7.4,15.68-3.24,2-6.86,3.31-10.25,5-2.64,1.36-5.52,2.54-7.71,4.46-3.92,3.44-6.1,7.73-4.69,13.31,1.09,4.33.62,5.1-3.15,7.28a24.31,24.31,0,0,1-5.39,2.54c-10.29,2.91-19.56,7.41-26.36,16.72-11.31-11.64-19.74-23.85-17.35-40.75.28-2,.41-4,.6-5.94a2,2,0,0,1,0-.49c1.71-5.18,4.41-10,5.37-15.47.14-.79,1.24-1.68,2.09-2,4.6-1.82,7.09-5.85,10.1-9.34,1.3-1.51,2.44-3.19,3.87-4.55,2.52-2.4,4-4.9,3.79-8.68a9.52,9.52,0,0,1,2.58-6.2,11,11,0,0,0,3.19-7c.24-3.18,2-5.61,4.36-7.57,3.23-2.71,5.94-2.39,8.53.85.83,1,1.58,2.11,2.72,3.65l11.24-12.07-11.45-1c-.13-1.08-.24-1.7-.27-2.33-.36-7-.35-7,6.23-9.39a4.78,4.78,0,0,0,2.09-1.24c3.66-4.65,8-4.66,13-1.8,10.86-23.17,12.76-46.16.27-69.07-7.44-13.63-18.72-23.59-32-31.4C114.16,15.75,96.32,10.12,77.8,6.47A252.87,252.87,0,0,0,17.25,2.38c-1.49.06-3,.09-4.48.12-.15,0-.3-.13-.69-.31C13.23.21,15.17.8,16.77.65a197.78,197.78,0,0,1,32.38,0c22.86,1.6,45,6.07,66.32,14.81,13.07,5.37,25,12.6,35.05,22.45,19.91,19.51,26.47,43.16,20.19,70.26-1.11,4.8-3.23,9.38-4.88,14.06-.53,1.53-1,3.06-1.34,4,2,2.36,3.53,4.22,5.16,6a15.48,15.48,0,0,0,2.35,1.7,19.62,19.62,0,0,1,3.5,2.7c1.92,2.3,1.22,4.46-1.54,5.39a12.76,12.76,0,0,1-2,.35,54.61,54.61,0,0,0-7.28,1.32,56.46,56.46,0,0,0-6.84,3.2c-.23,1.69-.46,3.42-.7,5.15l-.9.18c-.71-2.64-1.43-5.27-2.42-8.9-4.26,4.68-7.8,8.55-11.57,12.68,2.83,2.74.33,7.08,3.71,10.4,1.25-2.36,2.3-4.15,3.17-6,2.31-5,4.73-5.6,9.11-2.09a14.83,14.83,0,0,0,1.4.8c.71-6.69,5-10.25,10.69-12.58,3.06-1.27,6.16-2.64,9.48-1,.68,2.95,1.65,5.77,1.85,8.65.09,1.34-1,3.09-2.1,4.1a26.52,26.52,0,0,1-5,3.16,20.55,20.55,0,0,0-8.29,9c-2.31,4.63-2.57,8.66,1.19,12.73,3.63,3.91,3.74,8.75,2.34,13.6-1,3.53-2.15,4-5.81,3.38a10.29,10.29,0,0,0-2.42-.09c-.28,0-.53.34-.81.53a2.69,2.69,0,0,0-.36.89c0,5.48-.74,6.24-6.18,6.58-2.28.15-4.56.38-6.93.58a25.3,25.3,0,0,0-.72,3.23,5.79,5.79,0,0,1-2.85,4.94,10,10,0,0,0-5,10.12,11.16,11.16,0,0,1,0,2c-.31,4-2.77,6.76-5.93,6.76-3.87,0-6.56-2.62-7-6.78-.07-.64-.19-1.27-.33-2.17l-10.11.65c-1.22,3.64-.43,7.12.31,10.75l2.89-1c2,4.49.84,6.49-3.58,6.36-1.48-.05-2.94-.47-4.43-.67-1.92-.26-3-1.15-2.88-3.27.14-1.88.85-3.19,2.94-3.28.63,0,1.26,0,2.14,0v-8.45c-3.38-1-7-1.16-9.48-2.91s-3.86-5-6-8c-1.58-.08-1.5,1.64-1.58,3.08a36.29,36.29,0,0,0,3.74,17.86c2.9,6,7.1,11.16,11.82,16.08.63-.52,1.16-.89,1.61-1.34a45.26,45.26,0,0,1,19.39-11.76,91.88,91.88,0,0,0,10.54-4.38c2.11-.93,2.89-2.52,2.11-4.87-2.37-7.17,1.14-12.25,6.34-16.41,2.16-1.73,4.93-2.69,7.4-4,3.78-2,7.71-3.87,11.27-6.23,4.1-2.71,5.56-6.89,5-11.75a41,41,0,0,0-.74-4.41c-1.59-7,.73-12.84,5.81-17.55,5.72-5.31,12.45-8.24,20.44-7.34a37.47,37.47,0,0,0,26.45-6.61c6.49-4.51,13.47-7.91,21.67-7.89,9.22,0,16.8,3.4,22.34,10.94.38.52.8,1,1.27,1.6l5.55-1.35c-.88-2.66-3.2-3.56-4.82-5-2.56-2.32-5.35-4.39-8-6.6a19.87,19.87,0,0,0-11.62-4.75c-10.58-.9-19.57,2.74-28.14,8.17a35.78,35.78,0,0,1-19.67,6.06c-5.76,0-10.53-2.57-15.57-4.59-.15-.06-.26-.23-.41-.28-2.6-.82-.28-3.4-1.61-4.57s-3.46-1.78-3.2-4c.29-2.49-.81-4.44-1.83-6.54-1.29-2.67-1.23-5.91-.24-10.87,4.93-.3,8.34,2.42,11.53,6,3.62-5,5.58-11.56,13-13.29.75,2.79,1.41,5.23,2.05,7.58,2.24,0,2.53-1.25,2.55-2.69a59.35,59.35,0,0,1,.13-6c.51-4.12,3-6.58,6.63-6.88,4.12-.34,6.85,1.55,8,5.85.48,1.81.64,3.63,3,4l8.3-5.78c-1.41-2.24-2.94-4.57-4.38-7-2.9-4.82-.46-12,4.72-14.15a24.33,24.33,0,0,0,4.26-2.37c4.15-2.84,8.37-2.52,12.12,1,2.59,2.45,6.43,3.5,7.83,7.32.22.62,1.68,1,2.6,1.1,4.12.21,6.77,2.35,8.44,6a3.53,3.53,0,0,0,1.08,1.64,6.18,6.18,0,0,0,3,1,2.22,2.22,0,0,0,1.46-1.67c-.08-1-.6-2.66-1.25-2.83-6-1.54-8.21-7-11.8-11-3.42-3.76-2.4-7.43,1.8-10.53,3.3-2.44,6.5-5,9.64-7.64,4.09-3.44,9.51-2.44,12.29,2.2a23.19,23.19,0,0,0,4,4.88c3.1,2.9,3.67,6.28,1.32,9.74-.37.55-1.11.95-1.25,1.52-1.23,5.16-4.22,8.37-9.57,9.34a3.79,3.79,0,0,0-2.33,1.76,4,4,0,0,0-.35,3.16,3.88,3.88,0,0,0,2.78,1.39c1.09.1,2.3-.75,3.37-.59,1.57.23,3.43.59,4.53,1.59,4.44,4,8.88,12.2,7.44,18.53l8.52-1c-.43-1.46-.81-2.87-1.25-4.26C296.11,92,304.3,52,335.47,27c14.21-11.4,30.41-18.2,47.92-22.2C390,3.27,396.78,2.36,403.5,1.26a26.56,26.56,0,0,1,4.09,0l.18,1.37c-1.3.24-2.59.56-3.9.71-17,1.92-33.38,5.85-48.69,13.57C335.71,26.7,320.59,41,311.74,61.15c-8.13,18.54-9.5,37.84-5,57.55.56,2.43,1.14,4.85,1.79,7.25.9,3.27,2.25,6.08,5.63,7.76,3.66,1.81,4.92,5.18,4.42,9.23a6.9,6.9,0,0,0,.11,3.39c3.84,8.81,4,18,2.31,27.18-1.57,8.73-6.32,16-12.09,22.59a168,168,0,0,1-26.3,23.61C269,229.81,255.13,239.59,241.79,250c-24.06,18.81-41.11,42.71-50.6,71.86-.44,1.36-1.05,2.67-1.75,4.42a25.41,25.41,0,0,1-1.92-2.29c-9.32-14.89-22-26.59-35.84-37.07-10.06-7.62-20.54-14.69-30.79-22.07a59.14,59.14,0,0,1-4.78-4.28c1.77-4.5,5.13-7,8.62-9.17a77,77,0,0,1,8.94-4.36c6-2.74,12.07-5.42,18.89-8.47l3.9,2c9.87,5,19.87,4.45,29.94.7,2.49-3.7,8.85-4.05,8.68-10Zm-70.18-41.24c-2-3.62-3.93-7.25-6-11l-7.22,7.58c6.27-2.23,6.85-2.11,11.58,2.47a6.34,6.34,0,0,0,1.69.83c0,.92-.47,2.13,0,2.72,1.85,2.56,4,4.95,6,7.41,3.63-2.76,3.73-3.16,2.09-8.14Zm75-55.78-.1-.08v8.52l1.18.14c3.72-6.06,3.73-13.19,6-20.35-7.68,3.62-11.13,8.89-9.11,13Zm89.76,36.87,2.19.55c-2.57,3.55-3.43,7.66-7.61,9.76-2.66,1.34-2.71,3.41-1.5,6.83,4.32-.45,8.34-1.61,11.7-4.9-.71-1.46-1.4-2.86-2.16-4.43,2.13-1.68,4.65-2.93,4-6.13-.07-.35.5-.82.76-1.24,2.05-3.27,2.05-3.27-1.47-7-1.52,2.69-5.48,2.66-6.12,6.38-4.14.78-4.49,1.58-2.11,6.35C288.08,175,288.79,173.07,289.49,171.18Zm-70.92-35.07c.52.91,1.45,1.8,1.5,2.74.29,4.85,4.06,7.1,7.12,9.88.14.13.81-.31,1.77-.71-1.34-1.71-2.44-3.3-3.74-4.71-1.91-2.09-1.87-3.49.53-5,1.56-1,3.25-1.72,5.37-2.81l-10.19-5.21,4.21-.38-5.2-5.57.63-.58,19.08,16.5c.62-.68,1.47-1.19,1.63-1.87.47-2,1.44-4.37.79-6.06-1.09-2.86-3.33.69-5.4-.26a10.4,10.4,0,0,1,1.69-2.19,5.6,5.6,0,0,0,2.24-6.16,7,7,0,0,0-3.16-4c-.84-.47-2.76.44-3.85,1.21a22.8,22.8,0,0,0-3.3,3.57c-3.55-.71-5.83-2.24-5.84-6.22a4.1,4.1,0,0,0-2.14-3.06c-1.71-.68-4-1.3-5.54-.71A6.14,6.14,0,0,0,212.9,121c.4,5.67,1.19,11.25,5.84,15.32-4.78.13-4.86-4.61-7-7.46l-4.12,4.41a4,4,0,0,0,.59.83c4.66,3.64,4.67,4.21.69,8.33a52.17,52.17,0,0,0-3.44,4.35l.71.9a34.3,34.3,0,0,0,4.74-1.86c2.45-1.4,4.76-3.06,7.69-5Zm-26.7,138-.11-.1c-1,4.27-2.61,8.44-2.27,13.56,1.52-.82,3.12,0,3.64-2.3.33-1.48,1.61-2.75,2.45-4.12s2-2.41,2.13-3.71c.11-.89-1.26-2-1.93-2.9,5.89-9.19,6.21-11,2.23-14.32l-8.25,6.51c-1.13-3.75-2.9-6.79-6.86-7.88-2.58,2-1.8,4.75-1.34,7s.89,4.32.1,6.68c-.67,2-.18,4.14,2.4,6.32.41-3.49.73-6.26,1.14-9.75v11.84c-3,0-3.75-2.27-5.08-3.89-2.35-2.84.75-5.26.6-7.94-.65-.45-1.16-.87-1.73-1.19-3-1.69-3.09-2.05-1.52-4.84.32-.58,1-1.07,1.08-1.64.14-1.38.44-3.06-.19-4.08-.38-.63-2.37-.39-3.63-.31a2.77,2.77,0,0,0-1.7.95,5.89,5.89,0,0,1-4.85,2c-3,0-5.94.25-9.1.4-5.56-5.48-9.59-6.6-11.92,1.39a18,18,0,0,0-2.81.69c-2.9,1.19-3.24,3.74-.76,5.72a27.1,27.1,0,0,0,2.6,1.44c3,1.9,6.05,3.83,9.51,6l4.86-1.48c-3.16-3.25-5.06-6.56-4.33-10.87,4.75.24,7.81,3.16,11,5.75,1.2,1,2.18,2.14,3.83.86a9.33,9.33,0,0,1,.66.7l-2,3.18,3,4.09c2.38-3,2.38-3,4.74-2.25-4.71,2.89-2.82,6.94-2.53,10.16,3,.56,5.54.86,8,1.53s4.05.12,4.89-2.45c.46-1.41.51-3,1.06-4.34C189.73,278.31,190.85,276.23,191.87,274.1Zm-2.94,47.62c.76-2,1.26-3.56,1.9-5,3-6.85,5.59-13.88,9-20.48,10.54-20,25.61-36.32,43.47-50,12.65-9.71,25.65-19,38.42-28.53,10.26-7.69,20.12-15.84,28.13-26a47.27,47.27,0,0,0,10.18-25.54,17.06,17.06,0,0,0-.51-3.26c-1.94,3.35-3,6.2-4.94,8.32-2.35,2.61-5.8,1.76-9.19,1.27v11.08a6.41,6.41,0,0,1,2,.59c.71.57,1.86,1.56,1.72,2.05-.27.92-1.24,2.18-2.06,2.3a26.41,26.41,0,0,1-6.88,0c-.7-.09-1.25-1.45-2.05-2.46l4.95-2.34c0-3.21,0-6.19,0-9.18a9,9,0,0,0-.7-2.08c-1.46.57-3.88.94-4,1.68-.48,2.92-4.34,4.79-2.46,8.53.36.72-1.23,3-2.43,3.79-2.11,1.38-4.62,2.16-7.43,3.4,2.21,1.28,4.12,2.47,6.1,3.51a5.46,5.46,0,0,1,2.88,5.78c-1,5.63-4.66,9-10.4,9.65-4.09.47-8.17,1-12.42,1.55-1.54,4.47-5.75,5.62-9.36,7.31l-.6,6-.65,0c-.34-2.19-.69-4.38-1-6.15l-10.13-3c-1,.63-2.6,1.49-4,2.58s-2.83,2.62-4.33,3.83c-1.17.94-3.83.48-3.07,3.66,3.95-1.42,7.58-.41,11.18.87,2.57.92,4.21,2.85,4.19,5s-1.67,3.53-4.79,4.28c-1.6.39-3.36.49-4.78,1.23-4.84,2.54-10.09,1.63-15.17,2-2.35.18-3.36-1.35-3.2-4,.06-1,.7-2.34.27-2.83-2.61-3-.26-4.81,1.35-6.85.88-1.12,1.73-2.27,2.58-3.38-3.62-3.06-5.76-2.94-8,.42-2.64,4-5.07,8.06-7.68,12.26a21.18,21.18,0,0,1,3.07.84,8.59,8.59,0,0,1,5.33,7.25c.21,3.3-.68,6.66-1,10a1.85,1.85,0,0,0,.4,1.2c1.72,2.13.41,3.68-1,5.19-2.56,2.81-6.9,4-7.71,8.45-.09.46-1.14.66-1.58,1.14a33.92,33.92,0,0,0-2.43,3c-1.94,2.64-4,5.23-5.71,8-2.38,3.78-6.2,7-4.92,12.33a2.79,2.79,0,0,1-1.32,2.36c-2.79,1.06-3.77,3.17-4.76,5.8-1.6,4.25-10.06,5.9-12.72,2.64A37.07,37.07,0,0,0,169.26,293c.06-.31,0-.76.2-.93,1.28-1.13,2.61-2.21,4.42-3.72a27.93,27.93,0,0,0-3.56-1c-3-.39-4.65-1.92-5.27-5-1.09-5.41-3.07-6.8-8.28-5.47-2.12.54-3.22.08-4.81-1.17a31.75,31.75,0,0,0-7.46-4.28c-2.32-1-4.49-2-4.4-4.68s.67-5.27,3.86-6.33a6.36,6.36,0,0,0,2.82-2.42c3.2-4.59,6.33-5.06,10.74-1.46.63.52,1.27,1.4,1.93,1.42,3.31.11,7.43,1.22,9.77-.31,4.72-3.09,8.72-3,13.66-1.16,2.06.76,3.92,1,5.28,3a23,23,0,0,0,3.59,3.39c6-5.45,7.52-5.48,11.93-.42,0-1.06.28-2-.05-2.49a8.94,8.94,0,0,0-6.82-4.47c-2.76-.31-5.51-.73-8.25-1.1-.91-3.05-1.54-5.69.38-8.35,1-1.42.06-2.4-1.25-3.17-1.1.31-2.22.6-3.32,1-10.44,3.33-20.61,3.34-30.24-2.56-1.85-1.13-3.31-.66-5.08.23-5.64,2.81-11.46,5.26-17,8.19a120.21,120.21,0,0,0-11.32,7.14c-1,.68-1.6,1.94-2.63,3.25,2.4,1.9,4.4,3.61,6.54,5.13C133,271.2,141.54,277,149.9,283c14,10.08,26.54,21.6,36.42,35.84A31.94,31.94,0,0,0,188.93,321.72Zm-73.81-96.88c8,1.1,9.31.31,12.22-7a6.15,6.15,0,0,1,1.5-1.86c3-3,3.65-5.13,1.15-8.14a9.3,9.3,0,0,1-2-6.83c.06-2.63-.48-5.15-3-6.35-2-.94-2.78-2.31-3.62-4.22-1.65-3.77-4.76-4.43-7.36-1.4-2.08,2.4-4.71,2.84-7.32,3.69-4.48,1.45-6.14,3.29-6,7.74a8.22,8.22,0,0,1-1.79,5.86c-2.53,3.27-2.27,4.66.31,8.41a9.43,9.43,0,0,1,1.37,2.58c2.15,7.09,4.3,8.49,11.86,7.59.1-.12.25-.22.3-.36.84-2.37,0-4-1.9-5.58s-4.59-3.13-5.18-7.35l6.92,6.49c1-4.91-.22-9.32,1.8-13.32l1.1,5,3.09-1.43C114.29,213.4,114.26,218.87,115.12,224.84Zm194.09-72,.52.53a12,12,0,0,1-1.58,2.11c-3.69,3.21-4.47,7.13-3.29,11.73.75,2.91,1.8,3.92,4.68,3.84a6,6,0,0,0,6.13-4.83c.43-1.8.8-3.39,2.26-4.76.68-.63.63-2.12.76-3.24.16-1.3-.12-2.71.29-3.92a5,5,0,0,0-1.1-5.52c-1.65-1.63-1.78-3.39-1.3-5.46.88-3.77-.79-6.43-3.88-8.38-1-.62-2-1.2-3-1.72-5.94-3-10.37-1-12.18,5.34a34.62,34.62,0,0,1-2.18,4.82c-.4.88-1.17,1.77-1.12,2.62.13,2.25-.85,3.63-2.46,5.06-2.45,2.16-2.1,5.18-1.32,7.9.68,2.36,1.76,4.57,5.07,4.49,1.93-.05,3.17,1.51,3.82,3.42a38.84,38.84,0,0,0,1.91,4c2.49-3.83,2.39-6.44.12-9.5-1-1.32-1.95-2.62-2.82-4-.16-.24.21-.8.67-2.32l2,4.58,1.18-1,1-8.62.89.08c.22,1.74.44,3.48.7,5.57ZM142.43,164.5c-.17-1.5,0-3.57-.67-5.32a51.52,51.52,0,0,0-3.77-6.9c-2.22-3.87-5.19-4.34-7.75-.71C128.6,153.9,128,157,127,159.72c-.58,1.47-.85,3.41-1.94,4.26-2.86,2.24-3.6,5-3.24,8.33a31.33,31.33,0,0,1,0,4.94c-.37,6.78,4.54,12.09,12,12.58.33-4.4,1.32-8.85-3.85-11.45-.13-.06-.05-.54-.08-1l4.17.81v-8.95l1-.08c.3,2.57.6,5.14,1,8.44l3.4-3.42c-2.51,5.16-5,9.84-2.94,15.31,6.83-1.16,8.38-2.49,8.6-7.18.12-2.47-.64-4.84,1.84-7.12,1.63-1.5.52-4.42-1-6.4C145,167.49,143.89,166.25,142.43,164.5Zm131.92-43.39a16.42,16.42,0,0,0-2.73,1.13c-3.15,2-3.86,6.93-.65,8.27,5,2.08,9,8.2,15.69,4.67.39-.2,1,0,1.48,0,4.13-.18,6.56-3.1,8.84-5.9a4.92,4.92,0,0,0,.39-4.25,86.59,86.59,0,0,0-5.15-9.88c-1.43-2.43-3.73-3.16-6.46-2.36a7.8,7.8,0,0,1-4.68.39c-3.71-1-5.72.81-6.33,4.84C274.6,119,274.5,120,274.35,121.11Zm7.15-17.6c2-.54,3.69-.7,5.06-1.45a12.42,12.42,0,0,0,4-3.36,46.23,46.23,0,0,0,3-5.57c1.81-3.37,1.14-5.76-1.89-8.07a14.46,14.46,0,0,1-3.28-4c-2.28-3.74-6.51-5-9.76-2.53-3.53,2.64-7,5.34-10.46,8.12s-3.44,5.5-.56,8.46c2.07,2.13,4.15,4.25,6.33,6.27,1.36,1.26,2.58,3,4.9,2.6.35-5.92,2.15-4.79-3-15.33l4.47,1.05c.16,2.07.32,4.12.51,6.64l5.14-3C284.7,97.38,279.43,98.71,281.5,103.51ZM232,198.92c-3.61-.42-4.31.13-5.67,3.3a23.45,23.45,0,0,1-2.84,5.09c-3.23,4.19-1.76,8.39,3.47,9.7,1.53.39,2.93,1.31,4.46,1.74a16.09,16.09,0,0,0,4.21.53c1.1,0,2.39-.84,3.28-.49,3.14,1.2,4.32-.93,6.13-2.71s4.2-2.86,4.37-5.64a8.7,8.7,0,0,0-.83-3.74c-.61-1.47-1.61-2.78-2.28-4.24-2.25-5-6.26-6.55-11.12-4.41A22.6,22.6,0,0,1,232,198.92Zm-30.9,34.13-.45-1.06a19.68,19.68,0,0,0-4,2.08,25.69,25.69,0,0,0-3.87,4.26c-.85,1.11-2.19,2.64-1.94,3.64a24.39,24.39,0,0,0,3.17,6.59,2.87,2.87,0,0,0,2.55,1c2.85-1.17,4.69.21,6.64,1.95s4,1.52,5.79-.22c2.23-2.19,4.61-3.57,7.91-3.33,1.68.12,3.23-.56,3.18-2.89,0-.87.9-1.72,1-2.63s.16-2.5-.44-3.12a32.86,32.86,0,0,0-4.69-3.4,13.27,13.27,0,0,1-2.59-1.84c-2.67-3.1-4.48-3.66-8.23-2.33C203.8,232.23,202.44,232.62,201.09,233.05Zm62-18c5.54-1.45,6.84-2.66,7.07-6.26.13-2.11,1-4.71.15-6.24-1.66-2.85.42-6.79-3-8.94-.53-.34-.5-1.49-.84-2.21a45.42,45.42,0,0,0-3-6.14,3.19,3.19,0,0,0-5.43.09,9.5,9.5,0,0,0-1.63,4.58,12.26,12.26,0,0,1-3.08,8.1,8.54,8.54,0,0,0-1.66,4.5,39.72,39.72,0,0,0,.16,5.86c.16,5,2.87,7,8.35,6,2-4.29-3.41-5.39-4.16-9.13l4.64,2.65v-7.61l3.81,3.38C261.68,206.94,261.83,210.73,263.12,215ZM260,101.56c-1.34-1.79-1.91-3.39-2.82-3.62-2.57-.63-4.18-2.4-6.12-3.89-2.15-1.65-4.65-1.38-7,0-2,1.12-4.08,2-6,3.24a8.4,8.4,0,0,0-2.24,2.46c-.53.78-.69,1.8-1.22,2.58-1.84,2.76-1.84,4.16.09,6.56,1.22,1.52,2.35,3.12,3.58,4.63.5.62,1.14,1.5,1.79,1.56a7.56,7.56,0,0,1,5,2.77c.56.61,2,.37,3.27.54C250.06,111.4,248.89,103,260,101.56Zm-2.68,17.9,3.75.64c.37-2,.68-3.74,1.14-6.27l1.85,3.24,3.49-3c-.82,4.54-7.05,6.51-3.23,11.7a47.74,47.74,0,0,0,5.2-3.57c5.06-4.53,5.31-11,.29-15.51-3.75-3.34-8.67-3-13.23-2.38-3.35.46-3.75,3.76-4.47,6.48-.16.63-.56,1.19-.78,1.82-1.74,5-1.37,6.5,2.58,10a23,23,0,0,0,3.94,3c.84.47,2,.35,4.09.64Zm15.23,81.66c0,.83,0,1.66,0,2.48.25,4.18,1.18,4.81,5.28,3.91,1.59-.35,3.31-.2,4.86-.64,2.49-.7,5.3-1.19,7.22-2.72,1.74-1.38,2.52-4,3.58-6.15a1.87,1.87,0,0,0-.48-1.76c-2.29-1.52-4.68-2.88-7-4.28-.27-.16-10.55,2-10.85,2.21C272.38,195.78,272.24,198.38,272.56,201.12ZM157.05,173.18l.79.84c-2.18,2.63-5,5.11-2.7,8.95,7.29-1.8,9.11-5.46,6.22-12-.91-2.07-1.74-4.17-2.62-6.27l2.68-1.88a20.13,20.13,0,0,1-3.54-1.73c-5.65-4.56-5.62-4.58-8.17,2.37-.34.93-.93,1.78-1.21,2.72a8.67,8.67,0,0,0-.38,2.81c.11,2.29.39,4.57.56,6.86.17,2.44.29,4.88,3.3,7.08.18-2,.41-3.39.4-4.75,0-2.13-.24-4.26-.32-6.39,0-.12.44-.25.95-.53l.91,4.18ZM158.19,204c-2.76-5.82-2.76-5.82-8.07-8.69l-4,1.54-2.68-1.55c-1.68.54-3.12,1.5-4.38,1.3-2.49-.4-3.58.74-4.75,2.59-1,1.63-2.56,2.93-3.7,4.51-.26.36,0,1.34.36,1.84.7,1,1.59,1.95,2.56,3.11,4.1-3.92,8.32-5.3,13.72-3.4C150.82,206.47,154.69,205.8,158.19,204Zm9.65-72.32a38.11,38.11,0,0,0-3.79-2.79c-1.29-.72-2.92-.91-4.06-1.76-3-2.22-5.83-1.57-8.16.53a11.61,11.61,0,0,1-5.9,3.2,3.93,3.93,0,0,0-2.16,1.12c-.61.68-1.43,2-1.16,2.43a4,4,0,0,0,2.64,1.65c1.59.17,3.57-.83,4.8-.2,4,2.07,7.43-.35,11-1C163.06,134.43,164.86,133.1,167.84,131.67Zm95.61-4.19v9.15l14.26,10.56c1.89-9.71,1.74-9.84-5.89-14a10.93,10.93,0,0,1-4-4.09C266.77,127.21,265.64,126.77,263.45,127.48ZM249.57,121c-1.09,4.18-.61,7.87-.06,11.89,4.18.45,6.7,5.44,11.78,4v-8.33C256,128.31,253.31,124.22,249.57,121ZM234.81,235.24a24.71,24.71,0,0,0,4.35.55c.94-.07,1.82-.76,2.77-1,2.7-.7,5.44-1.26,8.13-2,1.49-.42,3-1.35,2.41-3.11-.33-1-1.66-1.8-2.72-2.34-.8-.42-2.1,0-2.81-.44-3.46-2.33-6-.77-8.08,1.91A76.1,76.1,0,0,0,234.81,235.24ZM172.4,285.05c-1.22-9-5.45-15.44-13.64-19.28a4,4,0,0,0,1.8,4.85c3.23,2.1,4.23,5.3,5.12,8.68.29,1.11.8,2.17,1.17,3.27C167.76,285.25,169.44,286.25,172.4,285.05ZM288.19,151.83c1.48-1.39,3.61-2.5,3.58-3.53-.12-4,2.54-6.61,4-9.81a16.66,16.66,0,0,0,.72-3.8c-2.48.79-4.46,1.78-6.51,2-4.31.5-5.75,1.7-5.92,6.34-.05,1.25-.3,2.5-.45,3.75l.61.15,1.39-3.82,5.51-2.83C291.1,144.31,286.08,146.78,288.19,151.83Zm-17,42.7c2.57-2.15,5.21-4.45,9.05-2.83,1.18-6-5-6.25-6.54-11.26L268,191.7Zm-73.93-40.37c1.75-3.19,1.92-4.26.18-7.13-1.06-1.75-1.94-3.11-1.19-5.4.63-1.92.65-4.36-2.53-4.91-.66-.11-1.11-1.43-1.64-2.2a10.77,10.77,0,0,0-7.86-5.16C191.42,136.7,193.59,145.81,197.27,154.16Zm81.9,30.06c3.82-8.27-1.51-14.74-2.12-21.95-4,1.52-4.24,1.81-3.41,4.4a11.59,11.59,0,0,0,1.68,3.57,6.72,6.72,0,0,1,1,7C275,180.37,276.49,182.18,279.17,184.22Zm-84.35-30.63c-1.46-7.52-7.75-19.3-11.4-21.2.34,2.07.05,4.29,1,5.41a7.25,7.25,0,0,1,1.59,7.31c1.73,1.72,4.45,3.24,4.36,4.59C190.18,153.26,192.47,152.69,194.82,153.59Zm43.66-35.18c5.46,2.83,3.59,6.67,3,9.38l4.22,7.45c2.32-4.08,1.33-8.22,1.45-12.15.08-2.36-2.09-2.56-3.68-3.36-.82-.41-1.32-1.45-2.12-2C241,117.55,240.3,118,238.48,118.41ZM158.1,137.72c7.47,3.53,12.56,3.84,16.2,1.15C170.8,133.18,168.07,133,158.1,137.72Zm-12,55.88A12.52,12.52,0,0,1,157,197.38c.36.33.83.93,1.13.87a12.91,12.91,0,0,0,4-1.27c.4-.25.47-2,0-2.56C158.66,189.79,151.63,189.29,146.09,193.6ZM283,177.09a65.92,65.92,0,0,0,2.32-7.9,5.67,5.67,0,0,0-1.1-4c-1-1.32-2.68-2.17-4.46-3.53C278.49,167.62,283,171.83,283,177.09Zm-2.74-26.38c2.3-10.31,2.3-10.31,0-12.14ZM204.83,140c-1.75,2.42-3.19,4.43-4.78,6.62C205.74,145.44,207.1,143.65,204.83,140Zm31.78,81.51h-1.38c.7,2.46-1.31,5.08,1.38,7.45Zm-2.85.7c-3.78,3.23-3.78,3.23-.66,5.12C233.29,225.86,233.46,224.55,233.76,222.24Zm-75.91-78.17,4.46-1.15C159.53,140.43,159.53,140.43,157.85,144.07Zm46.52-6.21c1.95.95,3.41,2.06,5.4-.32C207.93,136.14,206.46,135.05,204.37,137.86Zm3.7,121.8c.88-.77,1.77-1.54,3.44-3C208.14,257,208.14,257,208.07,259.66ZM144,138.12l-.17.68h5.32l0-.93Zm105.86,61.95c-2.17,1.63-1.94,2.81.46,4.6Zm-96.32-14.78c-.3.58-.66,1-.62,1.27s.44.66.68,1c.28-.32.76-.63.78-1S153.93,185.87,153.52,185.29Z"/><path class="cls-1" d="M90.68,295.74c-1.87,4.7-3.38,9.28-5.45,13.59a52.07,52.07,0,0,1-28.08,26.34c-7.79,3.18-16.09,5.13-24.18,7.57a3.15,3.15,0,0,1-2.59-.59,11.69,11.69,0,0,1,2.23-1c10-2.07,19.61-4.94,28.61-9.84,14.16-7.71,22.49-19.82,26.73-35,1.12-4,.93-4-3.63-6.74-3.92,13.88-9.68,26.56-22.17,34.87-8,5.34-16.9,8.48-26.22,10.41-2.72.57-5.55,1.75-8.54,0a68.13,68.13,0,0,0,7-1.54c7.08-2.31,14.3-4.33,21.11-7.31,9.81-4.29,16.62-12,21.36-21.49,1.92-3.86,3.31-8,5-11.93,1.43-3.29.91-5.77-1.9-8.32A82.17,82.17,0,0,1,63,262.7c-9.47-17.43-12-36-8.71-55.5,3.13-18.55,12.55-33.84,25.3-47.14,9.88-10.31,20.48-19.93,30.58-30,7.19-7.19,13.79-15,17.91-24.37,6.78-15.47,4.07-26.38-5.32-36.33C112.69,58.64,100,52.42,86.1,48.26c-26.45-7.91-53.42-7.88-80.56-5.78-1.61.13-3.23.15-5.54.25.5-4.68,1-8.88,1.42-13.18a7,7,0,0,1,2-.65A380.67,380.67,0,0,1,51.57,33C62.71,34.8,73.91,36.36,85,38.63a99.79,99.79,0,0,1,36.63,15,51.15,51.15,0,0,1,15.8,17,4.35,4.35,0,0,0,2.41,2.14,66.48,66.48,0,0,0-2.44-6.68,46.22,46.22,0,0,0-15.59-17.83c-5.18-3.57-10.81-6.49-16.25-9.68a13.45,13.45,0,0,1-4.29-3.23,12.62,12.62,0,0,1,2.32.37c9.89,3.65,19.25,8.29,27.22,15.29,4.42,3.88,8,8.55,9.69,14.26,3.54,12.12,4.75,24.54,2.2,36.94A56.23,56.23,0,0,1,136.39,119c-7.44,12.76-15.28,25.35-26.91,35-.48.4-1,.73-1.91,1.38-.32-2.51,1.09-3.73,2.15-5,3.37-4.11,6.82-8.15,10.2-12.26a10.36,10.36,0,0,0,2.3-4.59c-.82.6-1.65,1.18-2.45,1.8-4.57,3.6-9,7.38-13.71,10.78a186,186,0,0,0-28.71,26.14,72.58,72.58,0,0,0-12.92,21.17,20.49,20.49,0,0,0-1.33,4.27C59.74,217,60,236,69.92,253.77c1.29,2.32,2.66,4.6,4.14,6.8,9.72,14.44,21,27.48,35.55,37.26,6.2,4.16,12.55,8.08,18.9,12,9.17,5.68,18.34,11.38,27.61,16.9,11.16,6.64,18,16.43,21.71,28.69a73.42,73.42,0,0,1,3.48,22.05,17.79,17.79,0,0,1-.75,4.84c-3.05-17.58-5.6-35.27-21.55-46.86,8.19,9.86,11.73,21.6,14.06,33.89,2.37,12.54,1.13,24.72-2.89,36.76H163.6c.23-2.76.43-5.81.75-8.85,1.94-18.67-1.34-36-12.51-51.55-5.57-7.75-11.75-15-19.33-20.69-13.28-10-27-19.38-40.52-29C91.75,295.85,91.36,295.88,90.68,295.74Z"/><path class="cls-1" d="M222.55,403.77c-.5-4.76-1-8.68-1.32-12.62-.88-9.58-2.11-19.15-2.48-28.76-.51-13.2,1.72-26.13,5.62-38.74,1.4-4.52,2.43-9.24,4.51-13.43,3.25-6.52,7.3-12.64,10.91-19a79.71,79.71,0,0,1,18.52-22.63,133.74,133.74,0,0,1,11.38-8,24.78,24.78,0,0,1,4.59-1.86c.48,2.61-1.23,3-2.37,3.69-8.57,5.27-16.24,11.55-22.21,19.73-.47.64-.86,1.33-1.31,2,.49.19.86.45,1,.36,9.54-6.62,19.1-13.21,28.58-19.91,20-14.13,38.6-29.93,54.82-48.36,8.05-9.15,14.92-19.08,19.28-30.61,4-10.55,4.25-21,.11-31.58-2.24-5.72-4.25-11.53-6.62-17.19-1.1-2.62-1.53-5.82-4.8-7.14-.6-.24-.92-1.34-1.23-2.1-3.35-8-6.87-16-7.75-24.61-1.42-13.7,1.8-26.34,10.58-37.33A70.28,70.28,0,0,1,383.5,40.39c8.91-1.94,18-3.21,26.95-4.69a36.22,36.22,0,0,1,5.35,0v6.39c-2.05.06-4.14.06-6.22.19-16.4,1-31.84,5.23-45.07,15.3-13.51,10.27-20.75,24-20.24,41.2.23,7.75,2.7,15,5.85,22,2.37,5.3,4.87,10.55,7.09,15.91,7.05,17,7.69,34.53,3.08,52.23a75.18,75.18,0,0,1-15.51,29.25c-12.55,15-27.42,27.49-43.29,38.83-14.73,10.53-29.56,20.91-43.09,33-20.18,18.06-30.65,40.88-33.9,67.4-1.73,14.07-2.29,28.14-.51,42.25a13.58,13.58,0,0,1,.07,2.47C224,402.36,223.66,402.58,222.55,403.77ZM345.71,130.18,344.6,126c-1.9-7-4-14-5.65-21.15-1.49-6.33-2.1-12.78-.62-19.26.58-2.59,1.08-5.19,1.78-8.53C331.64,88.46,336.51,115.7,345.71,130.18Z"/><path class="cls-1" d="M199.13,105.8v10.26c-2.78-3.19,0-8.42-4.61-11.12.38,2.7.77,5,1,7.39a3.79,3.79,0,0,1-3.59,4.54c-5.55.58-11.13,1.11-16.7,1.15-3.64,0-5.19-2.74-4.16-6.26,1.52-5.24,6.91-9.23,12.66-9.36,1.48,0,3,0,4.86,0-.59-1-.94-2.13-1.7-2.71-2.76-2.07-3.19-4.84-3-8a14.11,14.11,0,0,0-.3-3.89,10,10,0,0,1,7-12,33.68,33.68,0,0,0,5-1.84c4-2,7.25-1.29,10,2.31a13.89,13.89,0,0,0,3.67,3.7c3.91,2.32,5.19,5,4,9.54-.63,2.38-1.29,4.77-1.8,7.18-1,4.89-4.46,7.14-8.89,8.36C201.67,105.33,200.7,105.48,199.13,105.8Zm-7.74-9.53.53-.53,5.22,1.61c.27-2.58.47-4.59.79-7.66l1.57,5.69L204,92.8c-2.24,4-7.28,5.74-4.28,10.42,7.54-.6,9.23-2.32,10-9.56a17.05,17.05,0,0,1,1.52-4.09c1.34-3.34.7-6.43-2.32-7.63-2.36-.94-3.5-2.59-4.86-4.41-2.15-2.91-4.56-3.21-7.82-1.54a15.09,15.09,0,0,1-4.06,1.51c-3.5.61-6.17,2.74-6.7,5.87-.77,4.53.73,9.15,1.15,13.74,0,.14.18.27.29.39,1.45,1.54,2.85,3.13,4.38,4.59,1.94,1.87,3.21,1.59,5.63-1.3Zm2.93,18.48c-.59-1.8-1.12-2.58-1-3.29.41-3.41-1.49-4.73-4.43-5.3a3.29,3.29,0,0,1-1.73-.78c-1.5-1.7-3.18-1.34-5-.65-1.21.47-2.45.86-3.66,1.33-1.88.73-3.54,1.64-4.17,3.83a39.32,39.32,0,0,1-1.87,4.48c3.2,4.45,7.44.59,11.09,1.53C186.6,116.68,190.21,115.28,194.32,114.75Z"/><path class="cls-1" d="M302.72,223.39c4.71-3.88,9.28-7.46,13.64-11.28a80.52,80.52,0,0,0,14.69-17.48c7.57-11.85,9.43-24.59,6.08-38.17a16.85,16.85,0,0,1-.54-4.33c3,4.36,4.15,9.29,4.65,14.38a46.44,46.44,0,0,1-6.86,29c-7.1,11.8-17.21,20.51-29.05,27.33a11.26,11.26,0,0,1-1.82.76C303.4,223.69,303.22,223.56,302.72,223.39Z"/><path class="cls-1" d="M320.92,66.31c4.2-24.25,33.94-45.82,56.13-46.38C352.05,27.8,332.14,41.77,320.92,66.31Z"/><path class="cls-1" d="M115.56,279.71a17,17,0,0,1-9.76-5.37c-9.27-9.83-17.36-20.54-23.32-32.73A31.34,31.34,0,0,1,80,219.33a5.26,5.26,0,0,1,1.54-2.6,14.52,14.52,0,0,1,0,2.19,36.93,36.93,0,0,0,5.76,25.71c5.87,9.24,12.1,18.28,18.68,27C108.33,274.84,112.17,276.94,115.56,279.71Z"/><path class="cls-1" d="M204.32,374.59c-5.31-18.75,4.82-54.57,16.33-69.37A181.55,181.55,0,0,0,209,339.36C206.41,351,204.35,362.64,204.32,374.59Z"/><path class="cls-1" d="M160,81.69c-4.22-21.2-16.58-36.45-35.13-47.92C142.29,37.15,160.66,62.33,160,81.69Z"/><path class="cls-1" d="M360.52,37.79c12.87-12.6,29.18-15.21,46.22-15.66C390.86,25.88,375.2,30.29,360.52,37.79Z"/><path class="cls-1" d="M211,399.84c-4.19-11-3.63-40.79,1.12-47.66C211.78,368.31,211.41,383.92,211,399.84Z"/><path class="cls-1" d="M248.08,259.47a90.44,90.44,0,0,0-20.29,19.12c-5.61,7.35-10.62,15.16-15.71,22.51C212.67,289,233.93,264.07,248.08,259.47Z"/><path class="cls-1" d="M88.79,268c-12.07-4.6-22.31-22.95-20.63-35.29,2.61,6.3,4.61,13,8,18.86S84.53,262.58,88.79,268Z"/><path class="cls-1" d="M83.05,14.33,35.64,10.4C46.53,7.62,71.31,9.7,83.05,14.33Z"/><path class="cls-1" d="M195.08,231.23c-2.18,1-4.44,1.94-6.53,3.14-3.23,1.85-6.54,3.13-10.14,2.58,5-2.69,10-5.51,15.11-8.13a13.35,13.35,0,0,1,5.18-1.53c8.24-.36,14.21-3.88,17.34-11.72a11.26,11.26,0,0,1,1.29-1.67c-.63,6-2.7,10.17-8.21,12.12-3.22,1.13-6.07,3.16-9.73,3.26-1.49.05-2.95,1.32-4.44,2Z"/><path class="cls-1" d="M42,16.16C32,18.48,12.86,15.8,7.8,11.22c.21-.22.39-.58.64-.64a4,4,0,0,1,1.47,0Z"/><path class="cls-1" d="M252.52,159c-1,.41-1.41.76-1.81.73-6.42-.52-11.88,1.81-17.25,5.11-3.9,2.4-8.28,4-12.48,5.91a2.82,2.82,0,0,1-2.52-.33c1.14-.54,2.3-1,3.4-1.64,3.9-2.15,7.72-4.47,11.7-6.48a74.73,74.73,0,0,1,10.84-4.7A8.17,8.17,0,0,1,252.52,159Z"/><path class="cls-1" d="M150,299.09c-7.69-8.94-17.7-14.72-28.48-20.67C129.92,278,145.1,289.13,150,299.09Z"/><path class="cls-1" d="M153.65,107.11c1.08-9.93,1.09-18.83-1.11-27.6C157.61,87.29,158.28,99.4,153.65,107.11Z"/><path class="cls-1" d="M170.42,212.78c9.21-5.37,13.76-12.28,11.15-23.19C187.55,198.62,181.08,212,170.42,212.78Z"/><path class="cls-1" d="M313.22,203.55a96.83,96.83,0,0,0,16.58-24.86C328,189.39,321.89,197.31,313.22,203.55Z"/><path class="cls-1" d="M91.61,202.79c-.68,3.18-1.42,6.34-2,9.53s-1.06,6.44-1.69,10.34C87.17,215.93,88.57,207.68,91.61,202.79Z"/><path class="cls-1" d="M175.89,170.49c.58,1.8-.48,2.46-2,2.49a15.26,15.26,0,0,1-3.15-.62,18.83,18.83,0,0,1,.54-1.92c3.18.55.53-1.83,1.39-2.57l3.22,2.74Z"/><path class="cls-1" d="M263.57,163.91l-7.06-3.4.52-1,7,3.6Z"/><path class="cls-1" d="M219.73,100.52c.34,2.3.68,4.6,1.18,8-2.86-3-2-5.64-2.38-8Z"/><path class="cls-1" d="M222.26,107.14l1.62-4.18,1.09.39c-.49,1.42-1,2.84-1.45,4.26Z"/><path class="cls-1" d="M175.92,170.61c-.3-1.58-.59-3.17-.94-5.07,2.82,1.5,1.53,3.25.9,4.93C175.89,170.49,175.92,170.61,175.92,170.61Z"/><path class="cls-1" d="M217.36,108.7,214.85,106l.71-.68,2.58,2.6Z"/><path class="cls-1" d="M136.68,257.07l-3.56,3.82-3.62-5.08.62-.68,3.56,1.3c.53-1.56,1-3.06,1.7-5.06,1.7,2.09,1.15,4,1.2,5.85Z"/><path class="cls-1" d="M236.35,244.08a16,16,0,0,1-1.38,3.49,13.89,13.89,0,0,1-2.75,2.33,10.42,10.42,0,0,1-1.88-2.62,6.53,6.53,0,0,1,.25-4.43c.64,1.64,1.29,3.28,2.16,5.49l2.8-4.6Z"/><path class="cls-1" d="M136.58,257.22l1.91-2.71,1.21.79L138,259.92l-.87-.17c-.15-.9-.29-1.8-.43-2.69Z"/><path class="cls-1" d="M227.78,245c.16,1.1.32,2.21.49,3.31l-.94.16-.69-3.43Z"/><path class="cls-1" d="M191.87,274.1c.39-3.93.42-4,3.64-6.74q-1.89,3.31-3.76,6.63Z"/><path class="cls-1" d="M171.47,266.52l-.82-4.81C172.94,263.47,172.55,264.94,171.47,266.52Z"/><path class="cls-1" d="M199.73,134.31l.7-3.36c1.26,1.66.44,2.56-.81,3.28Z"/></g></g></svg>