<svg xmlns="http://www.w3.org/2000/svg" viewBox="0 0 407.04 400.36"><defs><style>.cls-1{fill:#0b798e;}</style></defs><g id="Capa_2" data-name="Capa 2"><g id="Capa_1-2" data-name="Capa 1"><path class="cls-1" d="M44.6,299.42c-3.27-2.62-6.33-4.85-9.11-7.38a15.22,15.22,0,0,1-3.5-4.77c-1.35-2.93.09-5.15,3.27-4.84a26.44,26.44,0,0,1,7.56,2.17c2.5,1,4.79,2.57,8.23,4.48-1.19-2.94-1.95-4.88-2.77-6.8-2.44-5.63-5.08-11.2-7.28-16.92a20.7,20.7,0,0,1-1.32-7.75c.09-3.5,2.66-5.11,5.89-3.73a17.59,17.59,0,0,1,5.06,3.83,48.17,48.17,0,0,1,4,5.2c4.73-27.15,15.5-50.6,32.76-70.47-2.42-5.17-4.58-9.95-6.9-14.65-1.06-2.13-3.31-2.78-4.93-1.07a33.17,33.17,0,0,1-20,10.26c-2.07.31-4,2.29-5.75,3.81-8.26,7.22-16.42,14.55-24.62,21.83a5.24,5.24,0,0,1-3,1.54,24.47,24.47,0,0,1,2.33-2.81q11.61-10.57,23.29-21.07a24.82,24.82,0,0,1,11.45-5.68c7.43-1.66,13.47-5.49,16.54-13.07.62,1.18,1.1,2.12,1.74,3.34,1.39-3.42.31-7.55-3.45-13.55a32.74,32.74,0,0,0-3.25,4.14c-1,1.87-1.63,4-2.63,5.9-3,5.68-7.78,8.31-14.31,7.71a16.77,16.77,0,0,1,2.5-.93c6.52-1.41,10.47-5.59,12.27-11.78,1.08-3.71,3.52-5.77,6.78-7.41a44.71,44.71,0,0,0,7.1-4.53c1.29-1,2.43-2.56,1.35-4.33s-2.9-1.54-4.5-1c-3.94,1.3-7.8,2.83-11.73,4.16-2.46.83-5,1.45-8.61,2.48,1.89-2.67,3.9-2.6,5.53-3.23s3.35-1.37,4.43-1.81c1-4.59.13-8.48-1.93-12.54a11.52,11.52,0,0,0-7.93,4.56,166.1,166.1,0,0,0-10.6,13.83,56.32,56.32,0,0,1-17.13,17.13c-7.71,4.87-15.47,9.66-23.22,14.46A2.13,2.13,0,0,1,6,188.06c2-1.2,4-2.36,5.93-3.61,6.85-4.39,13.75-8.72,20.5-13.26,8.17-5.49,13.8-13.25,19.29-22.09-17.57,1.67-34.48,4.21-51.55,3.34,0-.33-.11-.65-.16-1a15.64,15.64,0,0,1,3-.58c14.33.12,28.54-1.34,42.74-3,4.74-.57,8.84-1.6,12-5.78,2-2.63,5.44-4.17,8.61-6.47-2-6-4.16-12.22-6.29-18.48-10.21.33-20,1-29.68.84a254.73,254.73,0,0,1-28.62-2.42c6.14-1.29,12.2.26,18.29.35,6.48.1,13,.51,19.44.38C45.76,116.13,52,115.49,59,115c-.87-2.66-1.6-4.47-2-6.35a14.17,14.17,0,0,1-.44-4.87c.32-2.25,2.66-3.83,5.13-4,2.63-.14,4.31,1,5.22,3.68C68,106.76,69,110,70.15,113.3a114.3,114.3,0,0,0,23.87-5c2.63-.83,4-2.79,5.28-5,2.27-4.06,4.7-8,6.69-12.24a38.55,38.55,0,0,1,16-17.31c3.18-1.83,4.21-4.12,4.05-7.66-.27-5.78-.08-11.59-.08-15.93l12.31-12.79C158,35.75,177.82,38.49,195.55,52c1.77-6.22-.34-11.43-2.7-16.84-9.68-.5-17.9-3.79-23.56-12-4.77-6.92-6-14.57-4.94-23.12,7.93,1.3,15.54,2.91,22,7.62,7.21,5.29,10,12.71,8.58,21.48-.53,3.24-.59,6.11,1,9,.83,1.54,1.14,3.35,2,5.85,1.91-3.72,3.37-6.65,3.39-10.25.05-10.68,4.37-16.66,14.45-20.08,3.26-1.11,6.64-1.88,10-2.8,3.37,13.76-7,26.1-22.13,26.28-2.83,4.16-5.24,8.62-4.73,14.94,1.49-1,2.34-1.4,3.08-2,10.6-8.32,23.05-11.59,36.12-12.8,5.44-.51,11-.17,16.45-.12,2.19,0,3.54.7,4.93,3,2,3.32,5.52,5.71,9.41,9.49,0,4.56.17,10.51-.07,16.44-.15,3.68.72,6.18,4.25,8,7.87,4.07,12.58,11.12,16.58,18.73,1.7,3.23,3.52,6.4,5.17,9.66a11.16,11.16,0,0,0,6.62,5.64c8.33,3,17,4.38,25.73,5.68,20.68,3.08,41.41,3,62.16,1,1.16-.11,2.32-.17,3.49-.19.28,0,.58.25,1.88.85-19.36,2.66-37.79,3.36-56.37,1.28.61,3,9.79,18.45,14.79,24.86,1.12-.14,2.42-.28,3.71-.46,7.51-1.06,14.31.38,19.64,6.08a10.73,10.73,0,0,0,8.45,3.44,74.86,74.86,0,0,1,11,.54c-4.6,2.33-9.54.31-14.69.79,6.15,11.64,15,20.06,25.94,26.55-5.16-1.25-14.47-7.82-18.07-12.65-2.29-3.06-4.22-6.39-6.6-9.37a78.75,78.75,0,0,0-8.6-9.62,19.3,19.3,0,0,0-17.62-4.59,44.4,44.4,0,0,0-19.18,9,43.94,43.94,0,0,0-3.45,3.5c1.42,2.59,3.05,2.73,5.09,1.45s3.92-2.51,6-3.62c4.37-2.35,8.94-4.1,14.06-4.22-9.06,3.66-18.68,6.39-24.34,15.36,2.6,3,4.61,1.68,6.89.34,4.86-2.84,9.8-5.56,14.83-8.06a11.51,11.51,0,0,1,6.45-.83,18.25,18.25,0,0,1-2.66,1.23,51.7,51.7,0,0,0-19.12,10.39c-1.26,1.07-2.88,2.16-1.63,4.11s3,2,4.85,1.14a21.7,21.7,0,0,0,3.32-2.16,45.85,45.85,0,0,1,16.56-7.8,2.16,2.16,0,0,1,2.1.72,30.64,30.64,0,0,0-4.23,1.47q-6.37,3.27-12.62,6.79c-1.51.85-2.68,2.07-1.4,4.39,3.28.3,6.19-1.18,9.12-2.61,3.62-1.78,7.3-3.25,11.72-2,1.86,5.4,6.09,9.19,10.32,12.89,5.64,4.94,9.65,11.15,14,17.08-5.84-4-8.45-11.14-15.3-15.86,1.06,3.73-.69,5-2.69,6.29-12.53,8.16-25,16.4-37.5,24.61-.42.27-.84.54-1.27.8-4.25,2.53-5,2.42-7.61-1.64q-14.2-22.26-28.35-44.58c-3.3-5.19-6.52-10.43-10-15.5a7.27,7.27,0,0,1-1-7.38,15.16,15.16,0,0,0,1-5.08c.05-3.25,1-4.29,4.1-3.76a21.89,21.89,0,0,1,2.92,1c.62-2.54-1.1-3.24-2.53-3.71-4.56-1.5-9.11-3.4-13.82-4a44.07,44.07,0,0,1-19-6.92,8.37,8.37,0,0,0-6.57-1.21c-13.91,2.34-27.85,4.56-41.79,6.77a19.18,19.18,0,0,0-7.86,2.78c-4.3,2.83-9.3,3.38-13.78.95-5.14-2.79-10.67-3.58-16.19-4.56-11.28-2-22.61-3.7-33.9-5.66-3.73-.66-6.79-.39-10.23,1.94a33.15,33.15,0,0,1-12.79,5.12A88.27,88.27,0,0,0,101,136.3c-3.85,1.49-7.68,3-11.26,4.45,1.7,5.37,4,10.28,4.68,15.41.6,4.25.71,9-1.58,13a8.31,8.31,0,0,0-.59,8c.9,2.11,1.44,4.38,2.25,6.94C138.22,144.88,188,133,244.2,150.18c55.1,21.07,87,61,97.14,119,1.06.36,2.33.72,3.56,1.21,3.83,1.54,5.51,3.94,5.06,8.09a5.67,5.67,0,0,0,1.46,5c2.77,2.8,3.08,6.21,2.25,9.73-.64,2.76.15,4.5,2.21,6.47,7.27,6.94,9.77,18.19.26,26.7-.74.66-1.37,1.45-2.11,2.12-2,1.83-2.19,4-1.11,6.34.84,1.8,1.84,3.53,2.69,5.33,3.49,7.35,2.41,14.24-2.3,20.64-4.42,6-10.27,10.39-16.72,13.95-13,7.2-27.12,11.64-41.51,15.16a357.52,357.52,0,0,1-48.65,7.87,470.87,470.87,0,0,1-70.75,2c-26.59-1.29-53-4.22-78.83-10.88a111,111,0,0,1-25.48-9.89,45,45,0,0,1-12.78-10.21q-9.27-10.8-1.66-22.93c.44-.7,1-1.36,1.37-2.08,1.92-3.43,1.58-5.5-1.67-7.63-2.36-1.53-5-2.65-7.47-4-4.31-2.3-8.19-5.09-10.56-9.54-3.64-6.84-2.84-13.59,2.34-19.34C42.14,302,43.37,300.75,44.6,299.42Zm7.76-7.27c-3.11-1.9-6.15-3.92-9.35-5.64-2.86-1.55-5.81-3.18-9.65-2.36.08,1.1-.13,2.17.28,2.9,3.49,6.26,9.76,9.16,16.26,12.46-7.76,1.81-14.32,12.62-10.92,20.27a18.56,18.56,0,0,0,7.26,8.62c3,1.83,6.06,3.45,9.08,5.2,6.44,3.73,7.2,6.75,3.29,12.89-.18.28-.37.56-.56.83-4.13,5.87-3.82,11.73-.14,17.7,3.24,5.25,7.84,9,13,12.07,9.25,5.48,19.48,8.39,29.77,11.06,23.27,6,47.07,8.57,71,9.7,38.29,1.81,76.42.11,114.1-7.67,16.15-3.33,32-7.56,46.74-15.18,6.8-3.52,13.38-7.48,18.27-13.59,5.74-7.18,7-14.74,2.24-23.08-3.8-6.63-3.46-7.65,2.2-13.22.36-.35.71-.71,1-1.07,5.4-5.91,6.13-12.46,1.72-19.1a25.23,25.23,0,0,0-6.37-6.88,94.73,94.73,0,0,0-15.41-9c-17.91-7.78-36.77-12.43-56-15.74-5.9-1-6.09-.72-6.81,5.23,0,.28.19.6.29.9.26.2.5.52.78.58,1.14.23,2.29.38,3.43.56,13.8,2.13,27.53,4.64,40.78,9.14,7.08,2.41,14,5.36,19.63,10.54,5.82,5.39,5.45,12.19-.91,17a59.63,59.63,0,0,1-7.76,4.42,51.82,51.82,0,0,0-5.29,2.74c-3.63,2.57-3.74,5.07-.56,8.11.72.69,1.54,1.27,2.27,1.95,6.61,6.11,6.83,13-.13,18.74a54.22,54.22,0,0,1-13.2,7.78c-3.31,1.42-5.15,3.23-5.78,6.63-.37,2-1,4.06-1.5,6.08l-1.06-.26,2.21-10.36-.84-.35-5.57,6.18c-1.25-7.83,1-14.74.53-22.68-7.55,7.7-6.07,16.92-7.53,25.83-3-3.33-4.84-7.07-9.53-8.14,1.9,5,4.45,9.12,4.34,14.11-1.22-2.84-2.45-5.68-3.73-8.63-31.83,6.42-63.75,8.25-95.7,7.23-.58,1.86-1,3.26-1.44,4.65-1.46-3.82.18-8.12-3.46-11.06-3.24,3.34-1.35,7.52-2.87,11.11-.38-1.66-.76-3.33-1-4.33l-59.59-8.39c-.46,1.36-1,2.84-1.63,4.85-1.77-5.06,1.21-8.94.71-13.7l-7.48,7.05c-2.09-7.86-4.24-15.12-8.28-22.38a15.09,15.09,0,0,0-.74,2.91c-.06,5.31-.27,10.64,2.35,15.57,1,2,1.89,4-1.51,5.11l-4.49-7.91-1-.16c.24,4.05-2.44,4.46-5.12,5.11-10.38,2.52-19.93-1.74-29.77-3.59-2-.37-2.48-2.25-1.32-3.94a12.14,12.14,0,0,1,7.58-5.27c1.08-.24,2.56-.39,3.09-1.13,2.37-3.29,5.84-4.08,9.73-4.49-.76-6.42,2.86-10.07,7.59-13.08a24.37,24.37,0,0,0,4-3,5.71,5.71,0,0,0-1.15-9.26,95.2,95.2,0,0,0-9-3.72c-1.73,4.29-3.24,8-4.74,11.71-.21-4.94,1.85-9.09,3.78-13.27,2.36-5.12,4.9-10.17,7.16-15.34.8-1.84,1-4,1.68-6.92-2.53.52-4.4.37-5.46,1.22-4,3.25-7.75,6.95-9,12.23-1.43,6.12-3.52,12.14-3.22,18.58a7.54,7.54,0,0,1-.52,2.05c-1.68-3.76-1.35-7.37-.57-11,1.36-6.5,2.84-13,3.76-19.55a72.25,72.25,0,0,0,.2-12.4c-.07-2.11-.26-4.72-2.77-5.37-2.75-.72-3.74,1.88-4.56,3.71A51,51,0,0,0,66.23,293c-2,9.31-.47,18.51,1.6,27.63.76,3.31,1.58,6.61,2.51,10.48-2.09-.75-4.19-2.06-4.71-1.6-2.69,2.41-4.09-.25-5.69-1.23a58.79,58.79,0,0,1-8.47-6.11,42.19,42.19,0,0,1-5.83-6.74c-1.19-1.63-1.82-3.63-.37-5.55a4.49,4.49,0,0,1,5.44-1.33,34,34,0,0,1,7.4,3.95A90,90,0,0,1,65,318.4c-.52-6.06-1-11.66-1.46-17.27-.2-2.71-1.5-3.44-4.08-2.51-.53,2.12-1.06,4.24-1.47,5.86L37.47,286.74A10.43,10.43,0,0,1,42,288.11c2.74,1.55,5.39,3.28,8.1,4.9,1.15.69,2.26,1.08,2.2-1a15.45,15.45,0,0,0,2.2,3.23,4.82,4.82,0,0,0,3.18,1.5c1.67-.2,1.58-1.74,1.26-3.16-.78-3.51-1.48-7-2.17-10.31L58.88,282c.45,3,.89,6,1.34,9,3.4-.35,3.19-2.35,2.82-4.13-.72-3.38-1.68-6.71-2.53-10.06,2.45-3.17,3.39-7.87,8.63-8.17.69-5.35,3.66-8.18,8.72-8.13,4.78-12.12,13-13.1,23.34-3,5.69-4,10.2-2,13.74,3.41,5.67-2.53,10.67-2.51,14.61,2.44,6-2.23,10.89-1.21,14.72,4a4.27,4.27,0,0,0,3,1.14c2,0,4-.42,6-.45,2.48,0,3.82-1.32,4.94-3.42,2-3.8,4.36-7.44,6.49-11.19s4.37-7.46,6.18-11.37c2-4.27,1.26-6.61-2.14-9.49-15,9.74-15,9.74-20.1,7.48-1.71-4,1.84-6.7,2.79-10.19a57.42,57.42,0,0,1-7-1.59,35.94,35.94,0,0,1-7.6-3.58,4.66,4.66,0,0,1-1.45-3.78c.09-.91,1.57-1.88,2.63-2.42a9.74,9.74,0,0,1,3.4-.65c9-.83,15.87-4.06,19.72-13.26,4.12-9.84,13.13-14,23-13.31a22.4,22.4,0,0,1,20.28,17.2,30.09,30.09,0,0,1-.26,16.72c-1.07,3.31-2.33,6.56-3.57,9.8-2.27,5.89-4.75,11.7-5,18.16-.07,2.16-.23,4.28,1.34,5.84,5.23-1.2,10.16-2.73,15.2-3.4,10.23-1.36,19.79,1.67,28.93,5.81,5.37,2.42,9.59,1.43,13.47-2.61.81-.84,1.64-1.65,2.45-2.47a30.78,30.78,0,0,1-2.78,4.39,36.19,36.19,0,0,1-4.4,3.66c1.75.35,2.87.59,4,.78,5.09.88,5.09.88,4.41,5.89,5.46,2.16,6.14,5,2.29,9.55-.53.63-1.21,1.14-1.76,1.75s-1.13,1.08-1.1,1.59c.26,4.53-3.23,6.36-6.19,8.28-11,7.17-23.06,9-35.8,6.28-8.6-1.8-15.85-5.89-20.88-13.32-1.31-1.94-2.61-3.94-2.47-7.12,7.71,14.85,19.93,20.22,35.33,19.46,4.77-.24,9.16-1.88,12.08-6,1.75-2.46,1.13-4.29-1.66-5.51-1.33-.58-2.72-1-4.09-1.51a16.61,16.61,0,0,1,4.12-.14c4.26-.13,8.25-1,11.24-4.43,2.11-2.41,2.1-3.28-.18-6.15,3.46-.67,6.74-1.59,8-5.89A27.61,27.61,0,0,0,254,266.4c-4.11-1.23-8.26-2.3-12.35-3.59-4.58-1.45-9-3.33-13.68-4.58-10.19-2.72-20.35-2.09-29.46,3.24-8,4.68-14.75,10.82-14.66,21.49,0,4.83-.73,5.2-5.77,5.06A48.84,48.84,0,0,1,178,294a37.44,37.44,0,0,1-1.54,7.76c-1.4,4-4.26,5.66-8.5,5.44-1.32-.07-2.64-.31-4.8-.57,4.94,4.86,10.28,7.08,15.85,8.7,13.47,3.93,27.24,4,41,2.57,8.11-.86,16.14-2.5,23.42-6.4,17.92-9.6,27.39-25,30.33-44.8a18,18,0,0,0-.24-3.59l-4.41.47c-.35-4.78,1.17-9.48-1.84-14.08-3.19,3.22-2.44,8.55-6.41,10.3-1.4-1.21-2.67-2.3-3.95-3.38,2-3,3.18-.21,4.44.78,3.21-2.79,1.29-7.83,5.26-10.2,5.61,3.16,3.87,8.81,4.42,13.58l3.9.4v9.34a15.37,15.37,0,0,0,2.29.79c1.8.25,3.61.41,5.24.59,7.28-7.93,9-8.44,18.69-5.36,4.89-5.79,10.77-6.89,17.29-1.92,1.49-1.09,2.74-2.17,4.14-3,3.35-2,6.82-3.42,10.7-1.21-5.91-.13-10.8,2.33-14.84,6.28-6.36-4.69-8.51-4.9-12.52-1.84,2.71,1.71,5.62,3.46,8.43,5.36,1.91,1.29,3.45,1.86,5.8.38a12.26,12.26,0,0,1,6.94-1.75c3.29.22,6.52,1.43,9.75,2.22.32-6.83,0-7.71-3.75-10.77l2.31-.73c-.39-1.9-.67-3.53-1.07-5.12-7.1-28.35-21.21-52.53-43.18-71.92-32-28.2-69.27-39.7-111.52-34.81-30,3.47-56,16-78.43,36-4,3.58-7.92,7.13-7.39,13.21,0,.1-.22.22-.59.57-.41-.17-1-.37-1.51-.64s-1.08-.65-1.61-1a13.35,13.35,0,0,0-1.27,1.11A128.24,128.24,0,0,0,65.53,236.5c-3,8.05-4.61,16.6-6.9,24.91-1.5,5.48.77,10.43,1.95,15.52-3.56-6-7-12-10.76-17.83a10.9,10.9,0,0,0-4-3.54c-2.68-1.41-4.74-.13-4.57,2.87a22.79,22.79,0,0,0,1.51,6.74c2,5.1,4.22,10.09,6.28,15.16C50.55,284.14,52.72,287.79,52.36,292.15Zm33.92.06c6.67.16,8.1,2.28,5.77,8.62-.35.94-.77,1.84-1.18,2.75-1.85,4.06-3.71,8.11-5.69,12.42,2.19.91,4.32,1.77,6.43,2.66,7.14,3,8.07,10.54,1.59,14.72a39.5,39.5,0,0,0-6.59,5.29c-4.09,4.11-3.58,7.06,1,10.53A82.48,82.48,0,0,1,96.54,357a5.91,5.91,0,0,0,5.64,1.8c-1.46-8.28-1.16-14.16,1-18.45,5.2,6.67,6.26,15.1,9.87,22.54,3.13-2.08,4.73-5.63,9.19-5.08L121.3,366c19.28,4.84,38.65,6.95,58.1,8.37.52-1,.83-1.59,1.11-2.17a17.85,17.85,0,0,1,1.07-2.25c1.45-2.2,3.23-2.23,4.67,0a37.75,37.75,0,0,1,2.1,4.29c32.05,2,63.48-.43,95.22-6.48-.84-2.37-1.42-4-2.1-6A256.77,256.77,0,0,1,222,368.65c8.34-1.34,16.75-2.2,25.08-3.52,13.43-2.12,26.83-4.52,40.22-6.88,3.75-.66,6.67-2.19,7.73-6.52.76-3.11,2.45-6.13,6.78-7.21.4,2.81.75,5.33,1.14,8.09,6-1.23,10.33-4.89,14.6-8.86-.7,1.82-1.38,3.7-2.72,4.74a64.15,64.15,0,0,1-8.77,5.59c-4.11,2.22-5,4.15-3.69,9.09a6.24,6.24,0,0,0,1.19-.82c1.72-1.84,3.34-3.86,6.31-2.2a2,2,0,0,0,1.44-.15c5.74-2.28,11.37-4.79,15.46-9.68,3.54-4.24,3.34-9.41-.44-13.53-1-1.1-2.2-2-3.27-3.07-4.42-4.3-4.05-7.93,1.18-11.14,1.27-.78,2.67-1.35,4-2a74.59,74.59,0,0,0,7.91-4.2c4.73-3.23,5.88-7.93,3.06-12.54a13.67,13.67,0,0,0-4.48-4.53,90.66,90.66,0,0,0-12-6c-16.14-6.47-33.13-9.3-50.43-11.63-.61,1.27-1.14,2.47-1.72,3.63-8.4,16.73-20.76,28.61-39.69,32.57-17.52,3.66-35,3.84-52.34-.76-17-4.51-27.48-18.1-26.54-34a13.92,13.92,0,0,0-.53-3,63.72,63.72,0,0,0-6.66.33c-11,1.67-22,3.11-32.94,5.3-8.58,1.72-17,4.41-25.46,6.68a40.68,40.68,0,0,0-4.24,1c-4.09,1.36-4.12,1.48-3.23,6.91ZM196.39,126.78c0-5,0-8.54,0-12.11,0-17.78-.23-35.56.25-53.32.14-4.89-1.41-7.94-5.09-10.37a77.56,77.56,0,0,0-8.13-4.82,77.91,77.91,0,0,0-23.81-7,88,88,0,0,0-21.14-.06c-1.4,4-1.79,30.9-.68,37.91a4,4,0,0,0,.8.54c.47.14,1,.14,1.46.27,4.37,1.17,5.9,4.28,3.74,8.27-.91,1.67-2.64,2.88-3.95,4.35-.86,1-2.29,2-2.33,3-.24,5.41-.11,10.82-.11,16.75C159.15,108.17,178.81,111.61,196.39,126.78Zm60.95-49.95c0-10.85,0-22.14,0-33.42,0-4.1-.25-4.59-4.6-4.52-7.45.14-15,.14-22.33,1.22-10.27,1.5-19.93,5-28.33,11.48-2.83,2.18-4.3,4.56-4.26,8.35.19,18.61.1,37.22.1,55.83v10.12c2.68-1.77,4.48-3.19,6.48-4.23,5.58-2.88,11.08-6,16.93-8.28,9.62-3.67,19.79-4,30-3.45,1.91.1,3.83,0,5.93,0,0-5.14.08-9.78-.05-14.42A6.25,6.25,0,0,0,256,91.88c-2-2.3-4.24-4.33-7-7.08V99.46l-22.37,2.15c-.27-7.9-.14-15.44.19-23,7.63-2.06,14.67-2.07,21.74-1.66l.74,3.94Zm93.59,64.72c-4.19-6.78-8.11-13.13-12.05-19.47a25.6,25.6,0,0,0-1.71-2.45c-1.39-1.74-2.71-1.38-4,0,1.89,4.91,1.89,4.91-1.76,5v-4l-5.09,2.83c2.25,5.1,2,5.75-2,5.94l1-4.71-5.61,3.43c1.83,5.2,1.58,5.85-2,5.83.09-1.06.18-2.1.33-3.84l-5.38,1.76c.32,1,.46,1.45.61,1.9,1.18,3.46-.32,6.14-2.53,4.31.25-1.15.5-2.34,1-4.88l-6.46,4c2.34,4,2.32,4.8-.16,6.47-.39.25-1.18-.1-1.85-.18.18-1.31.32-2.35.45-3.35-2.74-1.4-3.83.57-5.21,1.74.86,5.44.86,5.44-2,6.46.1-1.53.2-3.07.38-5.69l-5.79,4.07,42.26,65.82,43-28.18c-2.48-3-4.9-5.43-6.87-8.23-3.39-4.84-4.06-5.17-9.55-2.72-1.36.61-2.62,1.5-4,2-2.93,1-5.92,1.72-8.9,2.57-.89-1.79-1.45-3-2-4a5.43,5.43,0,0,0-1.14-.28c-5.21,0-5.16-.07-7.08-4.75a5.54,5.54,0,0,0-1.91-2c-2.63-1.95-2.8-2.44-1.4-5.23a19.31,19.31,0,0,1,1.29-2c-3.43-4.57-3.26-6.08,1-9.44a32,32,0,0,1,4.12-2.79C343.41,145.54,346.9,143.72,350.93,141.55ZM77.46,134.47c2.14.74,4.36.95,5.81,2.11,3.69,3,7.28,2.36,11.11.64,1.82-.82,3.76-1.34,5.57-2.16a64.26,64.26,0,0,1,19.52-5.55,22.49,22.49,0,0,0,13.26-6.38l-6.16-1.86c-.19-3.91-.37-7.59-.55-11.26-3.22,3.8-6.3,7.07-10.31,9.56-.15-.48-.28-.68-.23-.75a6.79,6.79,0,0,1,1.25-1.5c5.43-3.91,8.37-9.24,9.43-15.79a6.82,6.82,0,0,1,2.1-3.75c3-2.62,6.33-4.82,9.26-7.49a24.68,24.68,0,0,0,5.29-6.39c1.25-2.34-.35-4.37-3-4.19a14,14,0,0,0-4.69,1.43c-5.57,2.58-11.08,5.27-16.62,7.91,5.78-3.35,9.69-7.4,6.59-15.25C119.67,77,114.37,80,111.11,85.45c-2.55,4.28-5,8.59-7.38,13-5.47,10.29-5.41,10.37-16.9,13.41-5.07,1.35-10.21,2.43-15.73,3.72C73.31,122.13,75.41,128.36,77.46,134.47Zm191.21-23.94v11l-7.14,1.77A44.47,44.47,0,0,0,277.59,130a141.92,141.92,0,0,1,14.91,3.74c2.81.88,5.32,2,7.48-1l4,1.91c.84-1.95,1.14-4.38,2.47-5.24,1.13-.74,3.44.33,5.09.58.59-1.58.77-4,2-4.68,1.35-.83,3.61-.19,5.52-.19.89-1.55-.53-4.14,2.39-5.15l3.95,1.85v-6.14c-1.1-.28-2.2-.59-3.32-.85-6.29-1.46-12.59-2.89-18.88-4.36a15.07,15.07,0,0,1-10.69-8.8c-2.51-5.23-5.5-10.23-8.44-15.23-3.4-5.77-8.83-9.14-15-12.46-.13,1.84-.13,3.13-.32,4.39-.55,3.76.75,6.39,4.35,7.94a26.83,26.83,0,0,1,4.05,2.65c-6.62-2.51-12.91-5.42-19.23-8.26-2-.9-4.16-1.69-5.86.54-1.23,1.61-.68,4,1.57,6.18A62.38,62.38,0,0,0,259.43,92c2.1,1.61,4.5,2.9,6.34,4.76a9.1,9.1,0,0,1,2.68,5.07c.53,6.49,3.77,11.15,8.83,14.85a32.47,32.47,0,0,1,2.56,2.29l-.86.84ZM79.33,292.14c9.13-2.44,17.81-5.34,26.72-7,14.32-2.68,28.78-4.6,43.2-6.66,2.47-.35,4-1,4.46-3.62a45.16,45.16,0,0,1,1.38-5,37.52,37.52,0,0,0-3.86,0q-9.37,1.11-18.74,2.32a240,240,0,0,0-49.26,11.41C78,285.48,77.62,286.15,79.33,292.14ZM166,1.86c-3.17,16.44,10.4,32.62,25.62,30.8-3-8-8.74-13.85-14.73-19.54,7.39,3.81,11.57,10.55,15.86,17.66,2.17-6.09.48-14.53-4-19C182.56,5.45,174.44,3.34,166,1.86Zm-102.44,278a31.23,31.23,0,0,1,2.13-2.42c3.25-3,6-6.79,11.36-6,.74.11,1.82-.68,2.41-1.35,1.72-2,3.12-4.21,4.92-6.08,4.17-4.32,7.23-4.76,12.33-1.81C99,263.45,101,265,104,263.63a6.34,6.34,0,0,1,5.26.61c4.74,3.33,9.94,3,15.33,3.5,4.94.44,9.86.5,14.79.72a12.83,12.83,0,0,0,2.85-.65c-3.91-4.88-8.29-4.36-12-2.79-3.08-1.58-5.43-3.6-8-3.88s-5.27,1.19-7.92,1.89c-4.83-7-7.16-7.47-13.63-3.25C94.2,250,83.12,248.21,79,261.43c-2.39.94-5.12,1.22-6.39,2.73s-1.46,4.43-2.12,6.77C64.74,271,63,272.93,63.59,279.82ZM132.3,116a6.45,6.45,0,0,0,1.44.71c18.13,2.15,36.13,5,54,8.88,1.27.28,2.66,0,5,0-9-6.38-17.69-10.53-27.34-12.71s-19.35-1.79-29.23-1.16c-1.17-6,.59-11.85-1.34-17.55-1.17,1.19-2.38,2.49-2.43,3.83C132.18,103.94,132.3,109.91,132.3,116ZM259.1,95c-.15,5.4-.31,10.9-.46,16.23a9.26,9.26,0,0,1-1.51.39c-2.65-.06-5.31-.09-8-.24a73.18,73.18,0,0,0-45.28,12.15,24,24,0,0,0-2.6,2.42L262,116.09c0-6.34,0-12.61,0-18.88C262,95.73,261.42,94.6,259.1,95ZM136.56,220.61l-.43,1.44a33.26,33.26,0,0,0,4.27,2.79A30.07,30.07,0,0,0,163.16,226c1.67-.56,3.41-2.11,5.87-.6-4.15,6.77-9.58,11.19-17,13l-1.09-.84,2.73-6.3c-2.46,2-4.3,4.18-4.22,7.38,8.06,1.92,20.9-7,23-16-3.08-2.09-5.8-4.49-7.13-8.4-1.06-3.11-5-3.73-7.32-1.33-4.35,4.43-9.8,6-15.66,6.69C140.4,219.83,138.49,220.26,136.56,220.61ZM215,23c-3.82,3.52-7.68,7-10.18,12,4.59,1.82,8.05-.1,11.25-2.46,6.39-4.71,8.2-11.56,8.88-19-7.12-.24-15.33,3.43-18.66,8.14-3,4.19-3.67,7.33-2.28,10.81C207.5,29,209.9,24.38,215,23ZM202.77,220.89l1.14-.26c.15-5.48-.31-10.91-2.89-15.87-4-7.69-10.34-12.19-19.13-11.89s-15.53,4.3-19.5,12.37c-.53,1.07-1.49,2.39.4,3.27,2.16-2.34,4.11-4.82,6.42-6.89,7.43-6.67,17.17-6.8,24.88-.46,4.74,3.89,6.75,9.27,7.87,15.08C202.26,217.78,202.5,219.34,202.77,220.89Zm-37.43,34.28c8.27,4.3,25.92,3.92,28.75-.78-.1-.93-.25-2.29-.4-3.78a48.58,48.58,0,0,1-25.87.29ZM91.83,181.52l-8.64-24.78L80,159c2.32,7.63,5.18,14.61,6.72,22-4.38-6.37-5.07-14.3-9-21.6-.84,4.16,4.84,20.46,8.23,24.63ZM79.7,146.16c-.71-2.2-1.32-4.25-2-6.27-2.74-8-5.45-16-8.29-24-1.11-3.11-1.26-3-4.8-1.19,3.67,10.39,7.32,20.85,11.08,31.28C76.38,148,77.81,147.75,79.7,146.16ZM135.42,43.53c-2.89.83-3.13,2.73-3.13,4.75q0,14.7.1,29.4a10.71,10.71,0,0,0,.4,1.91c3.05-.1,3.17-2,3.16-4.12,0-9.13,0-18.26-.09-27.4C135.85,46.65,135.59,45.24,135.42,43.53Zm-48.87,116c4.38-4.55,5.62-9.65,3.44-13.92-2.68-5.25-7-8.34-11.43-7.9,1.67,3.72,1.62,8.14,5.86,10.5,1.74,1,1.92,2.91,1.34,4.88C85.11,155.29,84.45,157.58,86.55,159.52ZM259.16,44.46c-.08,2-.22,3.6-.22,5.23q0,12,0,23.89a26.21,26.21,0,0,0,.15,4c.22,1.46,1.12,2.21,3,1.89,0-4.41,0-8.7,0-13,0-6.14,0-12.28,0-18.42C262.17,46.37,262.24,44.63,259.16,44.46ZM351.11,295.2c2.36-5.6,1.9-7.54-3-13.76,1-7.06-.92-9.62-6.47-8.42a9.12,9.12,0,0,0,.21,2.88c2.55,6.08,6.52,11.54,7.82,18.17C349.74,294.42,350.39,294.65,351.11,295.2Zm-289-180.14c-.45,3.69,8.59,29.41,11.72,33.36C73.92,144.7,64.34,117.46,62.11,115.06ZM284.27,361.41l7.16,5.22c.42-2.9.71-4.85,1.05-7.14-2.44.32-4.2.52-6,.8A12.09,12.09,0,0,0,284.27,361.41ZM88.39,165.08c4.93-3.58,5.63-5.65,3.3-10.19C90.83,158.5,86.15,160.45,88.39,165.08Zm66.91,70.31,9.48-6.93C159.77,228.18,156.07,229.74,155.3,235.39Zm21.82-22.14c1.42-.91,2.77-2.45,4-2.35,1.42.12,2.72,1.67,4.5,2.9.34-3-.79-4.78-2.94-5.35a6.64,6.64,0,0,0-4.46.76C176.93,209.9,175.67,211.28,177.12,213.25ZM92.22,190.5v-6.83L86,186.43C87.93,188.74,88.93,191,92.22,190.5Zm-31.54-78c2.48,0,5,.09,6.88-2.76C64.38,109.24,62.24,110.11,60.68,112.48ZM89.89,170c2.21-1,2.82-2.42,2.09-4.87C90.33,166.51,88.47,167.36,89.89,170Zm201.58-27.85,1,.9c1.16-.3,2.62-.34,2.29-2.22-.07-.39-1.3-1-1.43-.89A15.08,15.08,0,0,0,291.47,142.15Zm35.06-23c.49.43,1,.86,1.46,1.3.61-.91,1.25-1.8,1.77-2.76.05-.09-.87-.86-.91-.82C328,117.55,327.29,118.34,326.53,119.12ZM317,127.41c-3.05-1.3-3.05-1.3-2.75,1.75Zm4.87-5.51-.92.29.69,2.16a6.81,6.81,0,0,0,.83-.33C322.31,123.3,322.08,122.61,321.87,121.9Zm-12.51,10.24-.06-1.35a21.38,21.38,0,0,0-2.4.37,7.36,7.36,0,0,0,.12,1.28Z"/><path class="cls-1" d="M263.73,196.43c6.65-2.79,6.65-2.79,9.56-9.81,1.15,2.24,1.83,4.67,3.37,6.29s3.85,2.32,5.95,3.5c-1.78,1.06-4.13,1.89-5.63,3.52s-2.4,4.21-3.75,6.74C272.24,201.14,269.6,197.34,263.73,196.43Z"/><path class="cls-1" d="M92.93,232.17c-2.67-6.07-2.67-6.07-7.08-8.15l6.75-5.93L98.38,224C95.35,225.24,93.22,227.55,92.93,232.17Z"/><path class="cls-1" d="M302.2,231.83l4.06-4-1.15-1.14,3.28,3.53L304.3,234l1.26,1.09-4.23-4.21Z"/><path class="cls-1" d="M251.31,178.08l3.14,3.62-3,3.66-3.06-3.66Z"/><path class="cls-1" d="M109.65,200.18l3.19-3.52,3,3.57-3.52,2.46Z"/><path class="cls-1" d="M155.8,306.17c-.8.56-1.63,1.08-2.4,1.68-4,3.11-4,5.88.58,8.31a55.41,55.41,0,0,0,12.4,5c23.71,5.83,47.66,6.21,71.67,2.13a132.48,132.48,0,0,0,14.41-3.83,25.89,25.89,0,0,0,5-2.1c5.42-2.93,5.57-5.79.59-9.5a13.28,13.28,0,0,1-1.37-1.59,6.15,6.15,0,0,1,5.9,4.09,4.72,4.72,0,0,1-1.37,5.89,31.68,31.68,0,0,1-7.51,4.72,114.22,114.22,0,0,1-33.45,7.17,169.53,169.53,0,0,1-36.79-1c-8.55-1.29-17-3-25-6.4a31.61,31.61,0,0,1-7.27-4.23c-3.69-2.93-3.58-6.06.09-9.1a26.31,26.31,0,0,1,4-2.31Z"/><path class="cls-1" d="M167.68,352.56c-8.12.9-16-.12-23.76-1.91a195.93,195.93,0,0,1-21.27-6.76c-4.06-1.45-7.41-4-9-8.4,8.62,8.27,19.81,10.25,30.73,12.69,6,1.34,12.09,2.15,18.13,3.24C164.28,351.73,166,352.17,167.68,352.56Z"/><path class="cls-1" d="M329.16,307.27c-4.06-4.79-9.6-7.12-15.33-8.68-10.23-2.78-20.59-5-30.89-7.54-.57-.14-1.12-.39-2.16-.75C294.79,287.41,324,297.61,329.16,307.27Z"/><path class="cls-1" d="M237.09,332.53c6-1.37,12-2.57,17.88-4.17a93.93,93.93,0,0,0,12.17-4.28c4.38-1.89,8.41-4.4,10.55-9.08.17,3.56-1.77,6.06-4.32,7.88a43.7,43.7,0,0,1-9.06,5.1C255.6,331.46,246.38,332.54,237.09,332.53Z"/><path class="cls-1" d="M147.8,300.12c-6.47,3-13.33,5.24-14.21,14.09-2-2.42-.92-4.66.25-6.49C137,302.66,142.09,300.63,147.8,300.12Z"/><path class="cls-1" d="M70,315.4c-1-10-1-20,2.33-29.76Z"/><path class="cls-1" d="M86.14,300.55c-3.21,7.7-6.43,15.39-9.28,22.23C76.53,317.55,80.74,307,86.14,300.55Z"/><path class="cls-1" d="M338.82,326.3c.11-.46.09-1,.36-1.36.92-1.1,1.87-2.89,3.5-1.58.72.57.86,2.4.61,3.52a68.69,68.69,0,0,1-2.27,6.9l-1.2-.32c.74-2.77,1.49-5.54,2.44-9.09l-3.53,1.83Z"/><path class="cls-1" d="M338.73,326.2q-1,2.76-1.9,5.52l-.85,0L335.2,324c1.52.71,1.55,2.88,3.62,2.32Z"/><path class="cls-1" d="M333.54,323.38c-.31,2.63.58,5.37-.62,7.92l-1.07-.06.36-7.9Z"/><path class="cls-1" d="M145.76,70.11V47.25a54.21,54.21,0,0,1,22.41,2.27V72Z"/><path class="cls-1" d="M146.48,97.17c15.1-1.22,29,2.56,42,10.16-.13.37-.25.73-.37,1.1-3.09-1.43-6.12-3-9.29-4.24a95.65,95.65,0,0,0-10.86-3.42,71.48,71.48,0,0,0-10.74-1.9c-3.59-.32-7.23-.07-10.84-.07Z"/><path class="cls-1" d="M188.52,89.3a78.25,78.25,0,0,0-41.3-9.52C152.31,75.23,182.28,81.46,188.52,89.3Z"/><path class="cls-1" d="M147,88.55c9.85-3.46,34.43,3,41.46,9.82-6.81-2.46-13.42-5.51-20.35-7.17S154.17,89.39,147,88.55Z"/><path class="cls-1" d="M188.05,60.74l-13.11-6.12c5.19.31,9.56,2.46,13.67,5.22C188.43,60.14,188.24,60.44,188.05,60.74Z"/><path class="cls-1" d="M188.35,79.56,174.89,73.1C178.45,72.64,184.75,75.53,188.35,79.56Z"/><path class="cls-1" d="M188,70l-13-6.2c5.34.14,9.51,2.79,13.82,5.14Z"/><path class="cls-1" d="M249.72,60a76.06,76.06,0,0,0-43.54,10C212.63,62.05,242.77,54.92,249.72,60Z"/><path class="cls-1" d="M206.58,60.05c12.65-8.74,26.66-12,41.69-11l.22,1.3c-4.8.29-9.64.27-14.38,1a85.45,85.45,0,0,0-14,3.24C215.46,56,211.07,58.18,206.58,60.05Z"/><path class="cls-1" d="M205.61,80.25c4.79-7.88,36.1-16,44-11.47A78.59,78.59,0,0,0,205.61,80.25Z"/><path class="cls-1" d="M220.85,101.37l-15.29,7.36C208.52,104.81,215.51,101.36,220.85,101.37Z"/><path class="cls-1" d="M221.19,82,206.8,88.76c-.16-.33-.31-.65-.46-1a48.39,48.39,0,0,1,14.48-6.85Z"/><path class="cls-1" d="M220.74,91.6l-14.51,7.28c3.92-4.21,8.89-6.38,14-8.21Z"/><path class="cls-1" d="M152.91,115.15a52.43,52.43,0,0,1,27.14,6.26c-4.39-1.27-8.73-2.74-13.17-3.76C162.28,116.59,157.57,116,152.91,115.15Z"/><path class="cls-1" d="M212.79,121.15A59.82,59.82,0,0,1,241,114.88Z"/></g></g></svg>