<svg xmlns="http://www.w3.org/2000/svg" xmlns:xlink="http://www.w3.org/1999/xlink" viewBox="0 0 2382.42 120.77"><defs><style>.cls-1{fill:none;}.cls-2{clip-path:url(#clip-path);}.cls-3{fill:#0b798e;}.cls-4{fill:#31a6bd;}.cls-5{fill:#86c3c6;}.cls-6{fill:#203b44;}</style><clipPath id="clip-path" transform="translate(434.11)"><rect class="cls-1" width="1920" height="116.95"/></clipPath></defs><g id="Capa_2" data-name="Capa 2"><g id="Capa_1-2" data-name="Capa 1"><g class="cls-2"><path class="cls-3" d="M1417.88,32.48s30.37,9.61,56.21-1.15,72-46,128.72-11.86,80,28.77,99.92,22.56,67.18-42,115.1-36.55,94,52.37,129.61,52.94l-2.12,27.06s-35.92-7.81-59.81-21.91-48.14-31-75.75-33.16c-58.34-4.57-75.08,41.14-139.57,36.85-61.24-4.08-75.62-57.19-128.88-46.77-22.65,4.42-32.62,16.48-65.3,19A153.29,153.29,0,0,1,1417.88,32.48Z" transform="translate(434.11)"/><path class="cls-4" d="M1818.2,51.09c-47.93-5.18-94.73,24.75-114.57,29.82a109.84,109.84,0,0,1-21.2,3.56c-8.35.54-16.89.12-31.13-2.31a319.29,319.29,0,0,1-47.22-11.9c16.42,11.53,41.33,25.22,72.67,27.46,57.32,4.09,79.33-34.21,133.68-25.47,20.2,3.24,18-.54,76.06,29.14,24,12.3,60,19.38,60,19.38l1.81-23C1912.67,96.82,1866.14,56.26,1818.2,51.09Z" transform="translate(434.11)"/><path class="cls-5" d="M495.11,28.28c-1,.7-2,1.29-3,1.86S490,31.24,489,31.76s-2.12,1-3.18,1.48-2.15.89-3.22,1.35-2.18.82-3.27,1.24-2.19.8-3.3,1.15l-3.33,1.07-3.36,1c-4.49,1.27-9,2.31-13.6,3.22-2.29.49-4.59.8-6.89,1.2s-4.61.69-6.92,1l-3.47.43c-1.15.15-2.31.22-3.47.34-2.32.2-4.64.44-7,.61-4.66.26-9.26.58-14.08.59a102.46,102.46,0,0,1-14.45-1.06,76.45,76.45,0,0,1-14.37-3.57,83.56,83.56,0,0,1-13.39-6.27c-4.22-2.4-8.17-5-11.94-7.41a100.07,100.07,0,0,0-11.21-6.37A60.06,60.06,0,0,0,337,17.62a69.83,69.83,0,0,0-12.25-1.78l-3.15-.13c-1.06,0-2.13,0-3.19,0s-2.13,0-3.2.07-2.15.05-3.19.16c-8.5.54-16.49,2.21-23.45,5.67l-1.31.66L286,23c-.86.46-1.71,1-2.57,1.53-1.71,1.11-3.4,2.26-5.16,3.57-3.51,2.57-7.23,5.58-11.6,8.36a63,63,0,0,1-14.34,6.86A70.81,70.81,0,0,1,237,46.48a106.62,106.62,0,0,1-15,.35,81.71,81.71,0,0,1-15.19-2,69.45,69.45,0,0,1-14.82-5.23,117.61,117.61,0,0,1-12.74-7.47c-3.87-2.52-7.38-4.81-11-6.71A62.34,62.34,0,0,0,157,20.83c-7.76-2.37-16.35-3.26-25-3.44a97,97,0,0,0-12.81.57A61.09,61.09,0,0,0,107,20.62a54.74,54.74,0,0,0-5.79,2.28c-1.91.89-3.8,1.86-5.7,3-3.8,2.16-7.69,4.69-12,7a70.07,70.07,0,0,1-13.63,5.79,77.38,77.38,0,0,1-14.44,2.69,110.89,110.89,0,0,1-14.33.33,90.13,90.13,0,0,1-14.35-1.58,57,57,0,0,1-14-4.63A78.34,78.34,0,0,1,.58,27.83a88.11,88.11,0,0,0-11-7.24,50.26,50.26,0,0,0-12-4.48,77.68,77.68,0,0,0-13-1.9c-2.21-.19-4.45-.22-6.68-.28s-4.47,0-6.68.13c-8.86.43-17.6,2-25.14,6.24a90.43,90.43,0,0,0-11,7.51c-1.86,1.38-3.78,2.76-5.79,4.06a56.35,56.35,0,0,1-6.34,3.48,55.36,55.36,0,0,1-13.77,4.12A89.13,89.13,0,0,1-125,40.58a103.26,103.26,0,0,1-14-.78,62.6,62.6,0,0,1-13.8-3.35l-1.67-.64-1.63-.71c-1.11-.46-2.15-1-3.22-1.55-2.09-1.12-4.12-2.32-6.07-3.6-3.91-2.55-7.57-5.27-11.39-7.62a64,64,0,0,0-12-5.85,72.12,72.12,0,0,0-13-3.3,130.39,130.39,0,0,0-27.08-1.3c-9,.48-18,2.32-26,6.43a78.44,78.44,0,0,0-11.35,7.34c-3.64,2.75-7.26,5.62-11.13,8.19a68.86,68.86,0,0,1-12.34,6.5,76.21,76.21,0,0,1-13.34,4,140.16,140.16,0,0,1-27.55,2.42V44.85a137.55,137.55,0,0,0,27.14-2.49,75.16,75.16,0,0,0,12.95-4A66.54,66.54,0,0,0-278.61,32c3.74-2.54,7.29-5.4,10.94-8.21A80.5,80.5,0,0,1-256,16.08a58.24,58.24,0,0,1,13.13-4.92,84.07,84.07,0,0,1,13.81-2.09,137.07,137.07,0,0,1,13.89-.29,122.15,122.15,0,0,1,13.88,1.16,74.63,74.63,0,0,1,13.67,3.24,66.92,66.92,0,0,1,12.77,6c4,2.39,7.78,5.07,11.59,7.47q2.85,1.8,5.81,3.31c1,.47,2,1,3,1.39L-153,32l1.56.56c8.3,3,17.36,3.63,26.33,3.42a80.22,80.22,0,0,0,13.29-1.27,50.24,50.24,0,0,0,12.42-4,51.16,51.16,0,0,0,5.63-3.27c1.82-1.22,3.6-2.56,5.39-3.95a95.2,95.2,0,0,1,11.52-8.19,52.4,52.4,0,0,1,13.46-5.4A79.6,79.6,0,0,1-49.24,7.7c2.36-.2,4.71-.23,7.07-.3s4.69,0,7.06.12a85.09,85.09,0,0,1,14.2,1.72A57.2,57.2,0,0,1-7.1,14,95.82,95.82,0,0,1,5,21.51a72.28,72.28,0,0,0,11.21,6.66,48.76,48.76,0,0,0,12.13,3.65,80.74,80.74,0,0,0,13,1.09c1.1,0,2.21,0,3.31,0l3.3-.1c2.19-.15,4.37-.3,6.52-.59A61.28,61.28,0,0,0,67,29.4a56,56,0,0,0,11.36-5.53c3.66-2.26,7.3-5,11.31-7.62,2-1.31,4.1-2.6,6.27-3.81a68.17,68.17,0,0,1,6.78-3.26,73.51,73.51,0,0,1,14.39-4.29A110.59,110.59,0,0,1,131.64,3.1,120.46,120.46,0,0,1,146.24,3a88.59,88.59,0,0,1,14.91,2.05,76,76,0,0,1,14.57,5,141.36,141.36,0,0,1,12.82,7,118.36,118.36,0,0,0,11.14,6.13A58.39,58.39,0,0,0,210.8,27a73.07,73.07,0,0,0,12,1.57,103,103,0,0,0,12.44-.12,53.13,53.13,0,0,0,11.57-2.13,44.61,44.61,0,0,0,10.48-4.79c3.44-2,7-4.69,10.91-7.44,1.95-1.37,4.08-2.75,6.26-4.07,1.12-.64,2.21-1.31,3.39-1.9.58-.3,1.15-.61,1.74-.9l1.78-.84a65.6,65.6,0,0,1,14.9-4.71,90.91,90.91,0,0,1,15-1.6A113.83,113.83,0,0,1,326,.54a84.92,84.92,0,0,1,14.82,2.83,71.94,71.94,0,0,1,14.08,5.77A113.69,113.69,0,0,1,367.24,17c3.82,2.72,7.38,5.41,11,7.76a74.53,74.53,0,0,0,11.13,6.08,64.87,64.87,0,0,0,12.07,3.87,98.59,98.59,0,0,0,12.86,1.88c4.34.34,8.92.34,13.43.48,2.25,0,4.51,0,6.77,0,1.13,0,2.26,0,3.39-.05l3.38-.13c2.26-.09,4.52-.15,6.76-.35s4.52-.27,6.76-.55c4.49-.43,9-1,13.43-1.76l3.34-.59,3.31-.71c1.12-.21,2.21-.49,3.31-.76s2.2-.51,3.28-.83,2.18-.6,3.26-.94,2.16-.67,3.22-1.05a55.92,55.92,0,0,0,6.2-2.55Z" transform="translate(434.11)"/><path class="cls-3" d="M-434.07,48a43.46,43.46,0,0,1,6.82,1.27c2.22.55,4.41,1.22,6.59,1.91,4.35,1.4,8.62,3,12.85,4.74l3.16,1.3,3.14,1.36c2.1.89,4.17,1.86,6.24,2.8s4.12,2,6.19,2.93,4.11,1.9,6.16,2.86a135.22,135.22,0,0,0,25.59,8.63A103.8,103.8,0,0,0-344,78c2.22.24,4.46.37,6.69.44,1.11,0,2.23,0,3.33,0s2.24-.09,3.24-.19h.19c4.89-.11,9.79-.26,14.63-.79,2.43-.2,4.82-.59,7.23-.93s4.76-.86,7.1-1.47a69.33,69.33,0,0,0,13.54-4.78,62.75,62.75,0,0,0,6.28-3.45c2-1.29,4-2.63,5.93-4.1,3.87-2.9,7.66-6.11,11.78-9a63,63,0,0,1,13.47-7.42,68.83,68.83,0,0,1,14.89-3.85,120.73,120.73,0,0,1,15.15-1.09,147.32,147.32,0,0,1,15.11.64,85.54,85.54,0,0,1,15.09,2.78A67.17,67.17,0,0,1-176,50.72c4.53,2.49,8.66,5.43,12.7,8A58,58,0,0,0-150.91,65a57.25,57.25,0,0,0,13.55,2.88,100.08,100.08,0,0,0,14.19.32,75,75,0,0,0,13.85-1.82,44.38,44.38,0,0,0,12.44-5,64.69,64.69,0,0,0,5.69-3.9l5.84-4.54a74.92,74.92,0,0,1,6.49-4.48,57.76,57.76,0,0,1,7.23-3.68,65.42,65.42,0,0,1,15.46-4.08,112.49,112.49,0,0,1,15.48-1,101.09,101.09,0,0,1,15.54,1A66.36,66.36,0,0,1-9.61,44.9a64.71,64.71,0,0,1,7.25,3.66C0,49.91,2.12,51.38,4.2,52.79s4,2.82,6,4.05A58.29,58.29,0,0,0,16,60.16a48.82,48.82,0,0,0,6.07,2.41c1.06.28,2.09.64,3.18.87l1.62.37,1.65.31a80.71,80.71,0,0,0,13.68,1.11A92.64,92.64,0,0,0,56,64.3a58.4,58.4,0,0,0,12.84-3.36,59.68,59.68,0,0,0,5.93-2.85c1.94-1.1,3.87-2.3,5.83-3.6,3.93-2.62,8.11-5.62,12.83-8.32a75.45,75.45,0,0,1,7.36-3.69c1.28-.51,2.56-1.07,3.87-1.51l2-.69,2-.6a87.61,87.61,0,0,1,15.93-3.07,136.85,136.85,0,0,1,15.78-.68,104.18,104.18,0,0,1,16.07,1.48,75.06,75.06,0,0,1,16,4.66c2.57,1.07,5.09,2.28,7.46,3.56s4.67,2.61,6.82,3.93,4.22,2.6,6.21,3.76,3.92,2.26,5.85,3.19a54.6,54.6,0,0,0,11.84,4.26,71.72,71.72,0,0,0,12.92,1.74,94.83,94.83,0,0,0,13.32-.29,49.77,49.77,0,0,0,12.22-2.7A44.36,44.36,0,0,0,254.68,57c1.84-1,3.68-2.13,5.55-3.38C264,51.1,268,48,272.63,45.1A72.12,72.12,0,0,1,279.92,41c1.28-.61,2.56-1.21,3.89-1.73s2.65-1,4-1.48A75.11,75.11,0,0,1,304,34.42c1.34-.12,2.69-.26,4-.34l4-.17c2.64,0,5.26-.06,7.92.07a93.64,93.64,0,0,1,16,1.93,72.8,72.8,0,0,1,15.62,5.22,93.58,93.58,0,0,1,13.8,8.07c4.25,2.91,8.13,5.81,12,8.38a75.94,75.94,0,0,0,11.89,6.5,66.08,66.08,0,0,0,12.88,4A90.41,90.41,0,0,0,416,69.68c1.18,0,2.32.14,3.54.14l3.63,0c2.42,0,4.84.1,7.26,0s4.83-.08,7.25-.17l7.23-.4a178,178,0,0,0,28.52-4.17,102.81,102.81,0,0,0,13.66-4l1.63-.64,1.6-.68c.53-.23,1-.48,1.54-.72l.71-.36.82-.46c2.26-1.21,4.5-2.32,6.77-3.41a172,172,0,0,1,28.11-10.63,101.23,101.23,0,0,1,14.77-3A61.86,61.86,0,0,1,558.08,41l-.15,2a63.37,63.37,0,0,0-14.39,1.49,109.64,109.64,0,0,0-14,4,180.77,180.77,0,0,0-26.41,12.26c-2.11,1.18-4.21,2.41-6.23,3.67l-.76.49-.9.54c-.59.32-1.18.67-1.76,1l-1.75.89-1.76.83a111.92,111.92,0,0,1-14.4,5.32,186.55,186.55,0,0,1-29.72,6.08l-7.52.83c-2.51.23-5,.4-7.53.6s-5,.28-7.54.4l-3.77.15c-1.25.06-2.57,0-3.86,0A105.19,105.19,0,0,1,400,80.42a77.74,77.74,0,0,1-15.57-4,90,90,0,0,1-14.38-7c-4.46-2.68-8.61-5.54-12.6-8.06a79.68,79.68,0,0,0-12-6.42,59.74,59.74,0,0,0-12.55-3.69A78.52,78.52,0,0,0,319.56,50c-2.27-.05-4.58.06-6.87.15l-3.39.26c-1.13.11-2.23.27-3.35.39a59.39,59.39,0,0,0-12.61,3,51.72,51.72,0,0,0-11.28,5.84c-3.67,2.43-7.41,5.49-11.76,8.57-2.2,1.53-4.52,3.06-7,4.46a62.62,62.62,0,0,1-7.8,3.7A67.33,67.33,0,0,1,239,80.46a103.3,103.3,0,0,1-16.23.67,83.09,83.09,0,0,1-16.39-2.07c-1.38-.33-2.75-.65-4.11-1.07s-2.72-.84-4.06-1.32a72,72,0,0,1-7.77-3.37c-1.26-.61-2.44-1.28-3.65-1.93s-2.34-1.35-3.44-2c-2.25-1.37-4.36-2.74-6.39-4s-4-2.51-5.92-3.61-3.85-2.09-5.8-3A61.29,61.29,0,0,0,153,54.67a85.48,85.48,0,0,0-13.32-1.82,127,127,0,0,0-13.79-.11,72.1,72.1,0,0,0-13.22,1.81l-1.59.39-1.56.46c-1,.28-2,.68-3.08,1a60.85,60.85,0,0,0-6,2.63c-4,2-8,4.58-12.35,7.24-2.21,1.33-4.53,2.64-6.94,3.86a73.39,73.39,0,0,1-7.56,3.23A71.8,71.8,0,0,1,57.72,77,109.19,109.19,0,0,1,42,77.6a91.4,91.4,0,0,1-15.74-1.67c-.66-.13-1.32-.26-2-.41l-2-.51c-1.32-.31-2.62-.78-3.93-1.17a59.77,59.77,0,0,1-7.6-3.23,72.65,72.65,0,0,1-6.94-4.14c-2.18-1.47-4.2-3-6.17-4.39s-3.87-2.76-5.79-3.94A52.71,52.71,0,0,0-14,55a55,55,0,0,0-12.86-3.82A91.35,91.35,0,0,0-40.8,49.94a100.71,100.71,0,0,0-14.05.59A55,55,0,0,0-68,53.65a46.17,46.17,0,0,0-6,2.89,65,65,0,0,0-5.77,3.8l-6,4.4a74.63,74.63,0,0,1-6.62,4.31,53.13,53.13,0,0,1-15,5.7,83.18,83.18,0,0,1-15.5,1.7,107,107,0,0,1-15.36-.71,64.85,64.85,0,0,1-15.26-3.64,65.52,65.52,0,0,1-13.79-7.32c-4.22-2.82-8.08-5.71-12.15-8.06a60,60,0,0,0-12.81-5.66c-9-2.8-18.68-3.64-28.35-3.83a112.79,112.79,0,0,0-14.38.7,63.11,63.11,0,0,0-13.8,3.21,58.57,58.57,0,0,0-12.54,6.55c-4,2.69-7.8,5.79-11.89,8.71-2,1.47-4.17,2.85-6.34,4.17a71.17,71.17,0,0,1-6.77,3.52,74.25,74.25,0,0,1-14.43,4.72c-2.46.58-4.94,1-7.42,1.36s-5,.65-7.47.8c-5,.45-10,.5-14.94.51h.19a59.68,59.68,0,0,1-7.06.08c-2.31-.12-4.62-.31-6.91-.6a105.33,105.33,0,0,1-13.57-2.54,137,137,0,0,1-25.86-9.3c-2.05-1-4.14-2-6.16-3s-4-2.06-6.1-3-4.08-2-6.15-2.91l-3.09-1.42-3.12-1.35c-4.17-1.79-8.37-3.49-12.65-5-2.15-.72-4.3-1.43-6.48-2a42.75,42.75,0,0,0-6.56-1.36Z" transform="translate(434.11)"/><path class="cls-6" d="M495.23,97.76c-1,.7-2,1.3-3.06,1.87s-2.07,1.1-3.12,1.62-2.12,1-3.18,1.48-2.15.9-3.23,1.35-2.18.83-3.28,1.25-2.19.8-3.3,1.15l-3.34,1.07-3.36,1c-4.49,1.27-9,2.31-13.62,3.22-2.29.49-4.59.8-6.89,1.19s-4.62.69-6.93,1l-3.47.45c-1.16.15-2.32.23-3.48.35-2.32.2-4.64.45-7,.62-4.66.27-9.25.6-14.09.61a101.51,101.51,0,0,1-14.49-1A77,77,0,0,1,385,111.32a84.2,84.2,0,0,1-13.45-6.27c-4.24-2.41-8.19-5-12-7.4a101.05,101.05,0,0,0-11.18-6.33,60,60,0,0,0-11.48-4,69.82,69.82,0,0,0-12.18-1.74l-3.14-.12c-1,0-2.11,0-3.17,0s-2.11,0-3.18.08-2.14,0-3.18.16c-8.46.57-16.38,2.26-23.24,5.7l-1.29.65-1.28.71c-.85.46-1.69,1-2.54,1.53-1.69,1.1-3.37,2.26-5.12,3.57-3.49,2.56-7.21,5.59-11.61,8.4a63,63,0,0,1-14.47,7A71.53,71.53,0,0,1,237,116.46a108.14,108.14,0,0,1-15.13.39,82.52,82.52,0,0,1-15.33-2,70.7,70.7,0,0,1-15-5.21,118.72,118.72,0,0,1-12.89-7.42c-3.89-2.49-7.39-4.72-11-6.56a61.06,61.06,0,0,0-11-4.35c-7.62-2.23-16.1-3-24.69-3.11s-16.85.74-24.38,3.34a54.3,54.3,0,0,0-5.59,2.24c-1.84.88-3.68,1.84-5.55,2.91-3.73,2.14-7.61,4.71-12,7.11a69.82,69.82,0,0,1-14,6,75.64,75.64,0,0,1-14.82,2.78,108,108,0,0,1-14.59.3,93.6,93.6,0,0,1-14.65-1.64A59.35,59.35,0,0,1,12,106.47,80.12,80.12,0,0,1-.49,98.63a87.87,87.87,0,0,0-10.8-7.12,48.27,48.27,0,0,0-11.58-4.34A75.57,75.57,0,0,0-35.59,85.3c-2.17-.19-4.38-.22-6.58-.29s-4.4,0-6.57.11c-8.72.4-17.16,1.93-24.43,5.95A87.65,87.65,0,0,0-84,98.42c-1.88,1.38-3.83,2.78-5.9,4.11a58.76,58.76,0,0,1-6.54,3.57,56.67,56.67,0,0,1-14.18,4.21A88.18,88.18,0,0,1-125,111.38a105,105,0,0,1-14.24-.87,63.37,63.37,0,0,1-14.08-3.5l-1.71-.65-1.67-.75c-1.13-.47-2.19-1.06-3.28-1.6-2.13-1.15-4.19-2.39-6.16-3.69-3.94-2.6-7.58-5.33-11.33-7.66a62.42,62.42,0,0,0-11.75-5.83A71.61,71.61,0,0,0-202,83.51a116.14,116.14,0,0,0-13.35-1.42c-4.51-.18-9-.29-13.5,0-8.94.43-17.81,2.16-25.71,6.16a78.42,78.42,0,0,0-11.31,7.2c-3.65,2.72-7.3,5.57-11.22,8.13A69.09,69.09,0,0,1-289.54,110,76.53,76.53,0,0,1-303,113.9a139.4,139.4,0,0,1-27.62,2.16v-2a136.85,136.85,0,0,0,27.08-2.76,74,74,0,0,0,12.85-4,65.9,65.9,0,0,0,11.76-6.46c3.7-2.55,7.22-5.43,10.85-8.27a82.73,82.73,0,0,1,11.69-7.83,59.1,59.1,0,0,1,13.27-5.07,82.86,82.86,0,0,1,13.94-2.2,139.12,139.12,0,0,1,14-.37,122.56,122.56,0,0,1,14,1.1,76.56,76.56,0,0,1,13.87,3.21,68.34,68.34,0,0,1,13,6c4.1,2.4,7.88,5.08,11.66,7.42,1.89,1.18,3.79,2.24,5.72,3.22,1,.45,1.94,1,2.94,1.34l1.48.61,1.52.53c8.09,2.85,17,3.45,25.85,3.2a81.28,81.28,0,0,0,13-1.32,49.05,49.05,0,0,0,12-3.91,49.53,49.53,0,0,0,5.43-3.17c1.76-1.2,3.5-2.52,5.28-3.91a96.57,96.57,0,0,1,11.69-8.34,50.89,50.89,0,0,1,6.76-3.3c1.18-.44,2.34-.92,3.54-1.27l1.78-.57,1.8-.47a81.15,81.15,0,0,1,14.43-2.25c2.4-.2,4.78-.25,7.16-.32s4.76,0,7.17.11A87.44,87.44,0,0,1-20.5,76.76a59.45,59.45,0,0,1,14.24,4.9A99.78,99.78,0,0,1,6.11,89.29,68.89,68.89,0,0,0,17,95.78a46.91,46.91,0,0,0,11.69,3.49,78.74,78.74,0,0,0,12.69,1,96.1,96.1,0,0,0,12.87-.73,62.6,62.6,0,0,0,12.08-2.72,56.31,56.31,0,0,0,11-5.37c3.57-2.21,7.22-4.87,11.3-7.54,2-1.33,4.19-2.63,6.42-3.85a70.74,70.74,0,0,1,7-3.3,75.44,75.44,0,0,1,14.76-4.28,110.87,110.87,0,0,1,14.8-1.68,119.3,119.3,0,0,1,14.76.09,89.37,89.37,0,0,1,15.1,2.22,77.88,77.88,0,0,1,14.75,5.21,138.82,138.82,0,0,1,12.85,7.2,119.46,119.46,0,0,0,11,6.17A56.59,56.59,0,0,0,211,95.48a71,71,0,0,0,11.9,1.61A97.74,97.74,0,0,0,235.23,97,52.32,52.32,0,0,0,246.66,95,44.15,44.15,0,0,0,257,90.28c3.41-2,6.92-4.64,10.9-7.39,2-1.37,4.1-2.76,6.3-4.08,1.13-.65,2.23-1.31,3.42-1.91.58-.3,1.16-.61,1.75-.9l1.81-.84a65.06,65.06,0,0,1,15-4.71,90.83,90.83,0,0,1,15-1.58,115,115,0,0,1,14.81.53A85.08,85.08,0,0,1,341,72.28,72,72,0,0,1,355.1,78.1,112.79,112.79,0,0,1,367.43,86c3.82,2.73,7.37,5.42,11,7.77a74.54,74.54,0,0,0,11.08,6.08,65,65,0,0,0,12,3.88,99.45,99.45,0,0,0,12.82,1.89c4.33.34,8.9.34,13.41.5,2.25,0,4.51,0,6.77,0,1.12,0,2.26,0,3.38,0l3.38-.13c2.26-.08,4.52-.16,6.76-.35s4.51-.28,6.74-.56c4.49-.44,9-1,13.42-1.76l3.34-.58,3.31-.7c1.11-.22,2.2-.5,3.29-.77s2.21-.5,3.28-.83,2.18-.59,3.25-.93,2.16-.67,3.21-1,2.12-.77,3.16-1.19,2.08-.88,3-1.34Z" transform="translate(434.11)"/></g></g></g></svg>