<svg xmlns="http://www.w3.org/2000/svg" xmlns:xlink="http://www.w3.org/1999/xlink" viewBox="0 0 2381.56 208.51"><defs><style>.cls-1{fill:none;}.cls-2{clip-path:url(#clip-path);}.cls-3{fill:#0b798e;}.cls-4{fill:#31a6bd;}.cls-5{fill:#86c3c6;}.cls-6{fill:#203b44;}</style><clipPath id="clip-path" transform="translate(434.11 -6.62)"><rect class="cls-1" width="1920" height="219.76"/></clipPath></defs><g id="Capa_2" data-name="Capa 2"><g id="Capa_1-2" data-name="Capa 1"><g class="cls-2"><path class="cls-3" d="M1217.55,44.56s41.78,13.21,77.35-1.58,99-63.36,177.13-16.33,110,39.59,137.48,31S1702,0,1767.9,7.41s129.28,72.06,178.35,72.85l-2.92,37.23s-49.42-10.75-82.3-30.15-66.24-42.65-104.23-45.63c-80.29-6.29-103.32,56.61-192.06,50.7-84.27-5.61-104.06-78.69-177.35-64.36-31.16,6.09-44.89,22.69-89.86,26.18C1264.28,56.81,1236.32,50.49,1217.55,44.56Z" transform="translate(434.11 -6.62)"/><path class="cls-4" d="M1768.41,70.16c-66-7.12-130.35,34.06-157.65,41a151.93,151.93,0,0,1-29.18,4.89c-11.48.75-23.23.17-42.83-3.18a438,438,0,0,1-65-16.37c22.6,15.86,56.87,34.71,100,37.79,78.88,5.62,109.16-47.07,184-35.06,27.8,4.47,24.79-.74,104.66,40.11C1895.46,156.3,1945,166,1945,166l2.49-31.71C1898.41,133.09,1834.37,77.28,1768.41,70.16Z" transform="translate(434.11 -6.62)"/><path class="cls-5" d="M856.71,189.2c-1.42,1-2.78,1.79-4.21,2.58s-2.87,1.53-4.32,2.26-2.94,1.36-4.41,2-3,1.25-4.48,1.88-3,1.15-4.54,1.73-3,1.11-4.59,1.59l-4.62,1.49-4.67,1.32c-6.23,1.76-12.55,3.21-18.9,4.47-3.17.69-6.37,1.12-9.56,1.67s-6.4,1-9.61,1.37l-4.82.6c-1.61.22-3.22.32-4.83.48-3.22.28-6.45.61-9.67.84-6.47.36-12.85.81-19.55.82a142.06,142.06,0,0,1-20.08-1.47,107.07,107.07,0,0,1-20-5,116.32,116.32,0,0,1-18.61-8.72c-5.86-3.34-11.34-6.94-16.58-10.29a139.7,139.7,0,0,0-15.57-8.86,84.48,84.48,0,0,0-16-5.66,97.52,97.52,0,0,0-17-2.47l-4.38-.18c-1.47,0-3,0-4.42,0s-3,0-4.45.1-3,.07-4.44.21c-11.79.76-22.9,3.08-32.56,7.89l-1.82.91c-.6.32-1.2.67-1.8,1-1.2.63-2.37,1.41-3.56,2.12-2.38,1.54-4.73,3.15-7.17,5-4.88,3.56-10.06,7.74-16.12,11.61a87.17,87.17,0,0,1-19.93,9.53,97.66,97.66,0,0,1-21.33,4.4,146.09,146.09,0,0,1-20.88.48,113.64,113.64,0,0,1-21.1-2.78,97.22,97.22,0,0,1-20.58-7.27,162.66,162.66,0,0,1-17.7-10.38c-5.38-3.49-10.25-6.68-15.27-9.32a86.78,86.78,0,0,0-15.5-6.36c-10.78-3.29-22.72-4.53-34.79-4.77a132.6,132.6,0,0,0-17.79.78,84.5,84.5,0,0,0-16.91,3.7,79.25,79.25,0,0,0-8,3.16c-2.65,1.24-5.28,2.59-7.91,4.1-5.28,3-10.7,6.52-16.62,9.78a97.25,97.25,0,0,1-18.94,8.05,106.18,106.18,0,0,1-20,3.73,154.47,154.47,0,0,1-19.92.47,125.3,125.3,0,0,1-19.92-2.2,79.74,79.74,0,0,1-19.47-6.43,109.56,109.56,0,0,1-17-10.64,123.31,123.31,0,0,0-15.33-10.07,69.83,69.83,0,0,0-16.68-6.22,108.2,108.2,0,0,0-18.09-2.64c-3.07-.26-6.18-.3-9.28-.39s-6.21,0-9.28.19c-12.31.59-24.44,2.82-34.93,8.67C60.85,181,56,184.7,50.82,188.55c-2.58,1.92-5.25,3.83-8,5.63A78.07,78.07,0,0,1,34,199a77.25,77.25,0,0,1-19.13,5.73A124.1,124.1,0,0,1-4.7,206.28a141.65,141.65,0,0,1-19.5-1.08,86.37,86.37,0,0,1-19.17-4.65l-2.32-.88-2.27-1c-1.53-.63-3-1.43-4.46-2.15-2.91-1.55-5.73-3.23-8.44-5-5.43-3.54-10.52-7.32-15.83-10.58a88,88,0,0,0-16.67-8.13,99.11,99.11,0,0,0-18.07-4.59,180.51,180.51,0,0,0-37.62-1.8c-12.52.66-25,3.22-36.08,8.93a108.47,108.47,0,0,0-15.77,10.2c-5.06,3.81-10.09,7.8-15.47,11.37a96,96,0,0,1-17.13,9A106.6,106.6,0,0,1-252,211.45a193.75,193.75,0,0,1-38.26,3.37v-2.6a190.9,190.9,0,0,0,37.7-3.46,103.66,103.66,0,0,0,18-5.52,93.27,93.27,0,0,0,16.51-8.91c5.2-3.53,10.13-7.51,15.2-11.41a111.81,111.81,0,0,1,16.16-10.67,80.82,80.82,0,0,1,18.25-6.83,116.8,116.8,0,0,1,19.18-2.91,191.39,191.39,0,0,1,19.3-.4,171.26,171.26,0,0,1,19.28,1.61,105.16,105.16,0,0,1,19,4.5A92.77,92.77,0,0,1-74,176.51c5.6,3.32,10.82,7.06,16.11,10.38q4,2.51,8.06,4.61c1.4.64,2.75,1.37,4.18,1.92l2.11.89,2.16.78c11.54,4.13,24.12,5,36.58,4.75a112.1,112.1,0,0,0,18.47-1.77,69.66,69.66,0,0,0,17.24-5.56A68.83,68.83,0,0,0,38.73,188c2.53-1.7,5-3.56,7.48-5.49,5-3.87,10.13-8.05,16-11.38a72.78,72.78,0,0,1,18.71-7.5,111,111,0,0,1,19.62-3c3.27-.27,6.54-.32,9.8-.42s6.53,0,9.81.17a118.86,118.86,0,0,1,19.74,2.39,79.41,79.41,0,0,1,19.18,6.62,133.14,133.14,0,0,1,16.87,10.42A97.67,97.67,0,0,0,191.5,189a67.86,67.86,0,0,0,16.85,5.08,113.3,113.3,0,0,0,18.05,1.51c1.53,0,3.06.05,4.59,0l4.59-.15c3-.2,6.07-.41,9-.81a84.69,84.69,0,0,0,17.31-3.9,77.49,77.49,0,0,0,15.78-7.69c5.1-3.14,10.15-6.92,15.72-10.58,2.78-1.83,5.7-3.61,8.71-5.3a97.17,97.17,0,0,1,9.42-4.53,103.68,103.68,0,0,1,20-6,154.65,154.65,0,0,1,20.24-2.48,167.23,167.23,0,0,1,20.28-.08A123.86,123.86,0,0,1,392.79,157,106,106,0,0,1,413,163.92a193.79,193.79,0,0,1,17.8,9.76,161.71,161.71,0,0,0,15.48,8.51,79.76,79.76,0,0,0,15.45,5.19,102.54,102.54,0,0,0,16.72,2.18,142.14,142.14,0,0,0,17.29-.17,73.58,73.58,0,0,0,16.08-3,62.36,62.36,0,0,0,14.56-6.65c4.77-2.84,9.65-6.51,15.14-10.33,2.72-1.91,5.67-3.83,8.7-5.66,1.56-.89,3.08-1.82,4.71-2.64.81-.42,1.6-.85,2.42-1.25l2.48-1.16a89.91,89.91,0,0,1,20.69-6.54A124.2,124.2,0,0,1,601.35,150a158.14,158.14,0,0,1,20.49.68,119.22,119.22,0,0,1,20.59,3.94,100,100,0,0,1,19.55,8,156.32,156.32,0,0,1,17.1,10.91c5.31,3.77,10.25,7.51,15.28,10.77a102.21,102.21,0,0,0,15.46,8.45,90.78,90.78,0,0,0,16.76,5.38,141.37,141.37,0,0,0,17.87,2.62c6,.46,12.39.46,18.65.65,3.14,0,6.27,0,9.41,0,1.57,0,3.14,0,4.71-.07l4.7-.19c3.13-.11,6.27-.21,9.4-.48s6.27-.38,9.37-.77c6.25-.6,12.49-1.36,18.67-2.45l4.64-.81,4.6-1c1.54-.3,3.06-.69,4.58-1.06s3.07-.71,4.57-1.16,3-.83,4.53-1.3,3-.93,4.46-1.47a76.77,76.77,0,0,0,8.63-3.53Z" transform="translate(434.11 -6.62)"/><path class="cls-3" d="M-434,69.56a58.53,58.53,0,0,1,9.46,1.76c3.09.76,6.13,1.7,9.16,2.65,6,2,12,4.21,17.85,6.59l4.4,1.81,4.36,1.89c2.92,1.23,5.78,2.58,8.67,3.89s5.72,2.71,8.59,4.06,5.71,2.64,8.56,4a187.15,187.15,0,0,0,35.55,12A146.73,146.73,0,0,0-309,111.26c3.1.33,6.2.51,9.3.61,1.55,0,3.1.06,4.63,0s3.11-.12,4.51-.27h.26c6.79-.16,13.59-.36,20.31-1.1,3.38-.27,6.71-.81,10-1.28s6.63-1.2,9.87-2a97,97,0,0,0,18.81-6.64,89.85,89.85,0,0,0,8.72-4.78c2.81-1.8,5.56-3.67,8.24-5.71,5.39-4,10.64-8.48,16.37-12.57a88,88,0,0,1,18.72-10.31,95.24,95.24,0,0,1,20.67-5.34,167.38,167.38,0,0,1,21-1.51,202.62,202.62,0,0,1,21,.88,117.93,117.93,0,0,1,21,3.87,92.62,92.62,0,0,1,19.93,8.26c6.3,3.45,12,7.55,17.65,11.11A80.61,80.61,0,0,0-40.7,93.11a78.87,78.87,0,0,0,18.81,4,139.26,139.26,0,0,0,19.72.45A104.74,104.74,0,0,0,17.07,95a61.59,61.59,0,0,0,17.28-7,89.6,89.6,0,0,0,7.9-5.42l8.12-6.3a102.92,102.92,0,0,1,9-6.23A77,77,0,0,1,69.43,65,89.9,89.9,0,0,1,90.9,59.3a154.75,154.75,0,0,1,21.5-1.42A141,141,0,0,1,134,59.32a91.65,91.65,0,0,1,21.59,5.9,91.43,91.43,0,0,1,10.08,5.09c3.22,1.88,6.22,3.91,9.1,5.88s5.62,3.91,8.31,5.63a84,84,0,0,0,8.11,4.6,67.83,67.83,0,0,0,8.43,3.35c1.48.39,2.91.9,4.42,1.2l2.25.53,2.29.42a110.78,110.78,0,0,0,19,1.54,129.29,129.29,0,0,0,19.2-1.29,81.93,81.93,0,0,0,17.84-4.66,82.81,82.81,0,0,0,8.23-4c2.69-1.52,5.37-3.19,8.1-5,5.46-3.64,11.27-7.81,17.82-11.56A106.16,106.16,0,0,1,309,61.86c1.78-.71,3.55-1.49,5.37-2.1l2.72-1,2.75-.83A122.49,122.49,0,0,1,342,53.7a191.63,191.63,0,0,1,21.92-.93,142.41,142.41,0,0,1,22.32,2,104.6,104.6,0,0,1,22.24,6.47,108.64,108.64,0,0,1,10.36,4.95c3.33,1.77,6.49,3.63,9.47,5.46s5.87,3.61,8.63,5.22,5.45,3.14,8.13,4.44a76.11,76.11,0,0,0,16.45,5.91,98.82,98.82,0,0,0,17.95,2.41,129,129,0,0,0,18.5-.4,68.88,68.88,0,0,0,17-3.75,61.41,61.41,0,0,0,7.8-3.49c2.55-1.36,5.1-3,7.71-4.69,5.23-3.51,10.8-7.79,17.22-11.85a103,103,0,0,1,10.13-5.67c1.78-.84,3.56-1.68,5.4-2.4s3.68-1.4,5.54-2a103.39,103.39,0,0,1,22.54-4.72c1.86-.16,3.73-.35,5.59-.46l5.54-.25c3.67,0,7.32-.08,11,.11a130.76,130.76,0,0,1,22.26,2.67A101.33,101.33,0,0,1,657.35,60,130.24,130.24,0,0,1,676.53,71.2c5.9,4,11.28,8.06,16.69,11.64a105.44,105.44,0,0,0,16.52,9,91.83,91.83,0,0,0,17.89,5.5,127.86,127.86,0,0,0,19.13,2.28c1.64.06,3.23.19,4.92.19l5,0c3.36,0,6.73.15,10.08,0s6.72-.12,10.07-.24l10-.55a247.73,247.73,0,0,0,39.61-5.8,142.09,142.09,0,0,0,19-5.61l2.27-.89,2.21-1c.75-.31,1.43-.66,2.14-1l1-.51,1.15-.63c3.13-1.68,6.24-3.23,9.39-4.74a239.92,239.92,0,0,1,39.06-14.77A141.49,141.49,0,0,1,923.23,60a87,87,0,0,1,21-.3L944,62.49a87.44,87.44,0,0,0-20,2.07,153.24,153.24,0,0,0-19.39,5.61,249.55,249.55,0,0,0-36.68,17c-2.93,1.64-5.85,3.35-8.65,5.1L858.2,93l-1.26.75c-.81.45-1.63.93-2.44,1.34l-2.43,1.24-2.45,1.15a153.78,153.78,0,0,1-20,7.4,259.72,259.72,0,0,1-41.3,8.44l-10.44,1.16c-3.48.32-7,.55-10.46.83s-7,.39-10.47.55l-5.24.21c-1.74.08-3.58,0-5.36.06a146,146,0,0,1-21.77-1.55A107.93,107.93,0,0,1,703,109a124.56,124.56,0,0,1-20-9.79c-6.2-3.72-12-7.69-17.51-11.19A110.85,110.85,0,0,0,648.86,79a83.22,83.22,0,0,0-17.42-5.12,109.39,109.39,0,0,0-18.59-1.59c-3.16-.06-6.36.09-9.54.22l-4.72.36c-1.56.15-3.1.37-4.64.54a82.35,82.35,0,0,0-17.53,4.16,71.15,71.15,0,0,0-15.67,8.1c-5.1,3.38-10.28,7.63-16.34,11.91-3,2.13-6.27,4.25-9.72,6.19A86.88,86.88,0,0,1,523.85,109a93.79,93.79,0,0,1-22.94,5.67,144.09,144.09,0,0,1-22.55.92,115.94,115.94,0,0,1-22.77-2.87c-1.91-.46-3.82-.9-5.7-1.49s-3.78-1.17-5.64-1.84a98.26,98.26,0,0,1-10.8-4.68c-1.75-.85-3.39-1.78-5.07-2.68s-3.25-1.87-4.78-2.82c-3.13-1.9-6.06-3.8-8.87-5.58s-5.54-3.49-8.22-5a90.62,90.62,0,0,0-8.07-4.14,84.73,84.73,0,0,0-17-5.64A117.77,117.77,0,0,0,363,76.27a175.27,175.27,0,0,0-19.17-.16,100.66,100.66,0,0,0-18.35,2.52l-2.21.54-2.17.64c-1.46.39-2.85.94-4.28,1.42a82.55,82.55,0,0,0-8.35,3.65c-5.53,2.75-11,6.36-17.15,10.06-3.07,1.84-6.29,3.67-9.65,5.36a100.71,100.71,0,0,1-10.5,4.49,99.93,99.93,0,0,1-22,5,151.2,151.2,0,0,1-21.83.81,127.27,127.27,0,0,1-21.87-2.32c-.92-.19-1.84-.36-2.75-.57l-2.75-.71c-1.83-.43-3.64-1.08-5.46-1.63a82.24,82.24,0,0,1-10.55-4.48,99,99,0,0,1-9.64-5.76c-3-2-5.84-4.13-8.58-6.09s-5.37-3.83-8-5.47a73.77,73.77,0,0,0-8.16-4.37,77.07,77.07,0,0,0-17.86-5.31,128.45,128.45,0,0,0-19.38-1.72A140.21,140.21,0,0,0,92.74,73a76.64,76.64,0,0,0-18.3,4.34,63.45,63.45,0,0,0-8.36,4,88.3,88.3,0,0,0-8,5.28l-8.28,6.11a102.16,102.16,0,0,1-9.18,6,73.72,73.72,0,0,1-20.86,7.92,116,116,0,0,1-21.53,2.36,149.76,149.76,0,0,1-21.34-1,89.58,89.58,0,0,1-21.19-5A91.66,91.66,0,0,1-63.47,92.85c-5.86-3.92-11.22-7.94-16.88-11.21a83.57,83.57,0,0,0-17.79-7.86c-12.48-3.89-25.95-5-39.39-5.32a157.88,157.88,0,0,0-20,1,87.51,87.51,0,0,0-19.17,4.47A80.41,80.41,0,0,0-194.1,83c-5.51,3.74-10.83,8-16.52,12.1-2.82,2-5.78,4-8.79,5.79a97.52,97.52,0,0,1-9.41,4.89,103.12,103.12,0,0,1-20.05,6.56c-3.41.81-6.86,1.33-10.31,1.89-3.45.41-6.9.9-10.37,1.12-6.92.61-13.84.68-20.75.7h.26a80.45,80.45,0,0,1-9.8.1c-3.22-.17-6.43-.42-9.61-.82a150.09,150.09,0,0,1-18.85-3.53,191.49,191.49,0,0,1-35.93-12.92c-2.85-1.4-5.75-2.77-8.55-4.19s-5.62-2.86-8.47-4.21-5.67-2.75-8.54-4l-4.3-2-4.33-1.88c-5.79-2.48-11.64-4.84-17.58-6.89-3-1-6-2-9-2.8a59.31,59.31,0,0,0-9.11-1.9Z" transform="translate(434.11 -6.62)"/><path class="cls-6" d="M856.88,138.65c-1.45,1-2.81,1.81-4.25,2.6s-2.88,1.53-4.33,2.26-2.95,1.36-4.43,2.05-3,1.25-4.49,1.87-3,1.16-4.54,1.74-3.05,1.11-4.6,1.59l-4.63,1.49-4.67,1.33c-6.24,1.77-12.56,3.22-18.92,4.48-3.18.68-6.38,1.11-9.58,1.66s-6.41.95-9.62,1.36l-4.82.61c-1.61.22-3.22.32-4.83.49-3.23.29-6.45.63-9.68.87-6.48.38-12.86.82-19.57.85a142.86,142.86,0,0,1-20.14-1.45,108.06,108.06,0,0,1-20-4.95,118.52,118.52,0,0,1-18.69-8.72c-5.89-3.34-11.38-6.94-16.62-10.28a138,138,0,0,0-15.54-8.79A82.48,82.48,0,0,0,637,124.12,96.21,96.21,0,0,0,620,121.71l-4.36-.17c-1.46,0-2.94,0-4.4,0s-2.95,0-4.43.11-3,.08-4.42.23c-11.74.78-22.74,3.13-32.28,7.91l-1.79.91c-.6.31-1.19.66-1.78,1-1.18.63-2.35,1.41-3.52,2.11-2.35,1.54-4.68,3.14-7.11,5-4.85,3.56-10,7.77-16.13,11.67a88,88,0,0,1-20.1,9.68,99.35,99.35,0,0,1-21.52,4.5,151.22,151.22,0,0,1-21,.55,117.76,117.76,0,0,1-21.3-2.72A99.89,99.89,0,0,1,435,155.22,167.2,167.2,0,0,1,417.1,144.9c-5.41-3.46-10.26-6.55-15.22-9.1a84.62,84.62,0,0,0-15.26-6.05c-10.59-3.1-22.36-4.23-34.29-4.32s-23.41,1-33.87,4.64a76.73,76.73,0,0,0-7.77,3.11c-2.56,1.23-5.11,2.55-7.71,4-5.18,3-10.57,6.55-16.62,9.88a97.39,97.39,0,0,1-19.47,8.29,104.83,104.83,0,0,1-20.58,3.86,148,148,0,0,1-20.27.41,128.3,128.3,0,0,1-20.35-2.27,81.89,81.89,0,0,1-20.08-6.64,111,111,0,0,1-17.36-10.89,121.24,121.24,0,0,0-15-9.89,66.91,66.91,0,0,0-16.09-6,106,106,0,0,0-17.66-2.6c-3-.26-6.08-.3-9.14-.4s-6.11,0-9.13.16c-12.11.55-23.83,2.68-33.93,8.26-5.1,2.71-9.89,6.35-15.08,10.2-2.6,1.93-5.32,3.88-8.19,5.71a81.14,81.14,0,0,1-9.08,5,79.14,79.14,0,0,1-19.71,5.85,123.23,123.23,0,0,1-19.9,1.48,144.68,144.68,0,0,1-19.78-1.21A88.31,88.31,0,0,1-44,151.51l-2.37-.92-2.33-1c-1.56-.65-3-1.48-4.55-2.22-3-1.6-5.82-3.32-8.56-5.13-5.47-3.62-10.53-7.4-15.74-10.65a86.05,86.05,0,0,0-16.32-8.08,98.4,98.4,0,0,0-17.78-4.63,165.36,165.36,0,0,0-18.55-2,186.15,186.15,0,0,0-18.75,0c-12.43.59-24.74,3-35.72,8.56a108.32,108.32,0,0,0-15.71,10c-5.06,3.77-10.14,7.73-15.58,11.29a96.63,96.63,0,0,1-17.31,9,106.56,106.56,0,0,1-18.66,5.39,194.06,194.06,0,0,1-38.36,3v-2.74a191.35,191.35,0,0,0,37.61-3.83,102.92,102.92,0,0,0,17.86-5.62,92.29,92.29,0,0,0,16.33-9c5.14-3.54,10-7.54,15.08-11.49a112.85,112.85,0,0,1,16.23-10.87,81.92,81.92,0,0,1,18.44-7,116.12,116.12,0,0,1,19.35-3.06A191.4,191.4,0,0,1-130,110a170.34,170.34,0,0,1,19.46,1.52,105.49,105.49,0,0,1,19.27,4.46,94.53,94.53,0,0,1,18.09,8.34c5.69,3.34,11,7.06,16.2,10.32,2.62,1.63,5.26,3.11,7.94,4.47,1.36.62,2.69,1.32,4.08,1.85l2.07.85,2.1.75c11.24,4,23.6,4.78,35.91,4.43a112.38,112.38,0,0,0,18.11-1.83A67.36,67.36,0,0,0,30,139.68a69.23,69.23,0,0,0,7.54-4.41c2.45-1.66,4.87-3.49,7.33-5.42,4.92-3.86,10.19-8.14,16.24-11.6a73.53,73.53,0,0,1,9.4-4.58c1.63-.61,3.25-1.27,4.91-1.76l2.48-.79,2.49-.65a113.32,113.32,0,0,1,20-3.13c3.33-.28,6.64-.34,10-.44s6.62,0,10,.15a120.56,120.56,0,0,1,20.15,2.43,82.18,82.18,0,0,1,19.78,6.81,136.12,136.12,0,0,1,17.18,10.6,96.17,96.17,0,0,0,15.19,9,65.32,65.32,0,0,0,16.24,4.85,109.58,109.58,0,0,0,17.62,1.45,131.93,131.93,0,0,0,17.88-1,85.77,85.77,0,0,0,16.79-3.77A78.45,78.45,0,0,0,276.38,130c5-3.07,10-6.78,15.7-10.48,2.82-1.85,5.82-3.65,8.92-5.36a98.84,98.84,0,0,1,9.7-4.57,105.17,105.17,0,0,1,20.49-6,156.7,156.7,0,0,1,20.56-2.33,169.29,169.29,0,0,1,20.51.13,124.89,124.89,0,0,1,21,3.09,106.75,106.75,0,0,1,20.48,7.24,193.53,193.53,0,0,1,17.85,10,166.39,166.39,0,0,0,15.27,8.57A78.72,78.72,0,0,0,462,135.49a99.48,99.48,0,0,0,16.53,2.24,137.85,137.85,0,0,0,17.14-.1,73.39,73.39,0,0,0,15.89-2.86A61.86,61.86,0,0,0,526,128.26c4.73-2.8,9.61-6.45,15.13-10.26,2.73-1.91,5.71-3.84,8.76-5.68,1.57-.89,3.1-1.82,4.75-2.64.81-.42,1.62-.85,2.44-1.25l2.5-1.17a91.64,91.64,0,0,1,20.87-6.55,125.63,125.63,0,0,1,20.9-2.19,157.75,157.75,0,0,1,20.57.74,118.48,118.48,0,0,1,20.68,4,99.44,99.44,0,0,1,19.65,8.09,158.15,158.15,0,0,1,17.13,11c5.31,3.79,10.23,7.53,15.24,10.79A102.35,102.35,0,0,0,710,141.54a90.28,90.28,0,0,0,16.68,5.39,138.14,138.14,0,0,0,17.81,2.63c6,.48,12.36.48,18.62.69,3.14,0,6.27,0,9.4,0,1.57,0,3.14,0,4.71,0l4.69-.18c3.14-.11,6.27-.21,9.39-.49s6.27-.38,9.37-.78c6.24-.6,12.47-1.35,18.64-2.43l4.63-.82,4.6-1c1.54-.3,3.06-.69,4.58-1.06s3.06-.7,4.55-1.15,3-.83,4.52-1.3,3-.93,4.46-1.46,2.94-1.06,4.38-1.65,2.9-1.22,4.19-1.86Z" transform="translate(434.11 -6.62)"/></g></g></g></svg>